<?xml version="1.0" encoding="UTF-8" standalone="no"?>
<!-- Created with Inkscape (http://www.inkscape.org/) -->

<svg
   xmlns:osb="http://www.openswatchbook.org/uri/2009/osb"
   xmlns:dc="http://purl.org/dc/elements/1.1/"
   xmlns:cc="http://creativecommons.org/ns#"
   xmlns:rdf="http://www.w3.org/1999/02/22-rdf-syntax-ns#"
   xmlns:svg="http://www.w3.org/2000/svg"
   xmlns="http://www.w3.org/2000/svg"
   xmlns:xlink="http://www.w3.org/1999/xlink"
   xmlns:sodipodi="http://sodipodi.sourceforge.net/DTD/sodipodi-0.dtd"
   xmlns:inkscape="http://www.inkscape.org/namespaces/inkscape"
   width="800mm"
   height="480mm"
   viewBox="0 0 800 480"
   version="1.1"
   id="svg8"
   inkscape:version="0.92.3 (2405546, 2018-03-11)"
   sodipodi:docname="drawing.svg">
  <defs
     id="defs2">
    <linearGradient
       gradientTransform="translate(-3.515625e-5,5e-6)"
       inkscape:collect="always"
       xlink:href="#linearGradient4530"
       id="linearGradient4532"
       x1="473.98215"
       y1="-79.464279"
       x2="799.79767"
       y2="-79.464279"
       gradientUnits="userSpaceOnUse" />
    <linearGradient
       id="linearGradient4530"
       osb:paint="solid">
      <stop
         style="stop-color:#000000;stop-opacity:1;"
         offset="0"
         id="stop4528" />
    </linearGradient>
  </defs>
  <sodipodi:namedview
     id="base"
     pagecolor="#ffffff"
     bordercolor="#666666"
     borderopacity="1.0"
     inkscape:pageopacity="0.0"
     inkscape:pageshadow="2"
     inkscape:zoom="0.35"
     inkscape:cx="1562.8981"
     inkscape:cy="844.35002"
     inkscape:document-units="px"
     inkscape:current-layer="layer1"
     showgrid="false"
     inkscape:window-width="1600"
     inkscape:window-height="918"
     inkscape:window-x="102"
     inkscape:window-y="21"
     inkscape:window-maximized="0" />
  <metadata
     id="metadata5">
    <rdf:RDF>
      <cc:Work
         rdf:about="">
        <dc:format>image/svg+xml</dc:format>
        <dc:type
           rdf:resource="http://purl.org/dc/dcmitype/StillImage" />
        <dc:title></dc:title>
      </cc:Work>
    </rdf:RDF>
  </metadata>
  <g
     inkscape:label="Layer 1"
     inkscape:groupmode="layer"
     id="layer1"
     transform="translate(0,182.99999)">
    <rect
       style="fill:#ffffff;stroke-width:0.26458332"
       id="rect4524"
       width="1.5119048"
       height="2.2678571"
       x="506.4881"
       y="-181.51785" />
    <rect
       style="fill:#ffffff;stroke-width:0.26458332"
       id="rect4526"
       width="325.81549"
       height="204.10715"
       x="473.98215"
       y="-181.51785" />
    <rect
       style="fill:#ffffff;stroke:url(#linearGradient4532);stroke-width:0.84666669;stroke-miterlimit:4;stroke-dasharray:none"
       id="rect4526-2"
       width="325.81549"
       height="204.10715"
       x="473.98212"
       y="-181.51785" />
    <flowRoot
       xml:space="preserve"
       id="flowRoot4610-2"
       style="font-style:normal;font-weight:normal;font-size:40px;line-height:1.25;font-family:sans-serif;letter-spacing:0px;word-spacing:0px;fill:#000000;fill-opacity:1;stroke:none"
       transform="matrix(0.26458333,0,0,0.26458333,554.46168,97.389257)"><flowRegion
         id="flowRegion4612-9"><rect
           id="rect4614-7"
           width="437.14285"
           height="94.285713"
           x="394.28571"
           y="-54.398212" /></flowRegion><flowPara
         id="flowPara4616-0">Temp</flowPara></flowRoot>    <flowRoot
       xml:space="preserve"
       id="flowRoot4610-6"
       style="font-style:normal;font-weight:normal;font-size:40px;line-height:1.25;font-family:sans-serif;letter-spacing:0px;word-spacing:0px;fill:#000000;fill-opacity:1;stroke:none"
       transform="matrix(0.26458333,0,0,0.26458333,582.43193,-167.19407)"><flowRegion
         id="flowRegion4612-1"><rect
           id="rect4614-9"
           width="437.14285"
           height="94.285713"
           x="394.28571"
           y="-54.398212" /></flowRegion><flowPara
         id="flowPara4616-9">Temp</flowPara></flowRoot>    <rect
       style="fill:#000000;stroke-width:0;stroke-miterlimit:4;stroke-dasharray:none"
       id="rect4678"
       width="6.0476079"
       height="80.130951"
       x="796.7738"
       y="80.041679" />
    <rect
       style="fill:#000000;stroke-width:0;stroke-miterlimit:4;stroke-dasharray:none"
       id="rect4680"
       width="5.291667"
       height="279.70236"
       x="-0.75595254"
       y="-170.17857" />
    <rect
       style="fill:#000000;stroke-width:0;stroke-miterlimit:4;stroke-dasharray:none"
       id="rect4690"
       width="91.470238"
       height="6.0476193"
       x="592.66669"
       y="18.809536" />
    <rect
       style="fill:#000000;stroke-width:0;stroke-miterlimit:4;stroke-dasharray:none"
       id="rect4715"
       width="3.7797618"
       height="77.10714"
       x="-0.7559523"
       y="197.21428" />
    <rect
       style="fill:#f2f2f2;stroke-width:0.05291667;stroke-miterlimit:4;stroke-dasharray:none"
       id="rect4733"
       width="80.886887"
       height="201.83929"
       x="718.91071"
       y="-181.51785" />
    <rect
       style="fill:#cccccc;stroke:#000000;stroke-width:0.02645833;stroke-miterlimit:4;stroke-dasharray:none;stroke-opacity:1"
       id="rect6175"
       width="60.476185"
       height="17.386911"
       x="506.4881"
       y="-179.25" />
    <ellipse
       style="fill:#cccccc;stroke:#000000;stroke-width:0.02645833;stroke-miterlimit:4;stroke-dasharray:none;stroke-opacity:1"
       id="path6177"
       cx="537.48218"
       cy="-142.96428"
       rx="17.386906"
       ry="30.238094" />
    <ellipse
       style="fill:#280b0b;stroke:#000000;stroke-width:0.02645833;stroke-miterlimit:4;stroke-dasharray:none;stroke-opacity:1"
       id="path6179"
       cx="537.86017"
       cy="-140.31845"
       rx="11.717261"
       ry="18.520834" />
    <rect
       style="fill:#cccccc;stroke:#000000;stroke-width:0.03520973;stroke-miterlimit:4;stroke-dasharray:none;stroke-opacity:1"
       id="rect6181"
       width="90.705536"
       height="46.860294"
       x="592.67108"
       y="-182.26942" />
    <rect
       style="fill:#ffffff;stroke:#000000;stroke-width:0.0338782;stroke-miterlimit:4;stroke-dasharray:none;stroke-opacity:1"
       id="rect6185"
       width="68.788635"
       height="30.986265"
       x="604.00751"
       y="-175.46396" />
    <flowRoot
       xml:space="preserve"
       id="flowRoot6214"
       style="font-style:normal;font-weight:normal;font-size:40px;line-height:1.25;font-family:sans-serif;letter-spacing:0px;word-spacing:0px;fill:#000000;fill-opacity:1;stroke:none"
       transform="matrix(0.26458333,0,0,0.26458333,38.553571,-160.32142)"><flowRegion
         id="flowRegion6216"><rect
           id="rect6218"
           width="400"
           height="91.428574"
           x="2165.7144"
           y="362.74466" /></flowRegion><flowPara
         id="flowPara6220">Bathroom</flowPara></flowRoot>    <flowRoot
       xml:space="preserve"
       id="flowRoot6222"
       style="font-style:normal;font-weight:normal;font-size:40px;line-height:1.25;font-family:sans-serif;letter-spacing:0px;word-spacing:0px;fill:#000000;fill-opacity:1;stroke:none"
       transform="matrix(0.26458333,0,0,0.26458333,-43.845237,-181.48809)"><flowRegion
         id="flowRegion6224"><rect
           id="rect6226"
           width="548.57141"
           height="94.285713"
           x="2185.7144"
           y="1417.0304" /></flowRegion><flowPara
         id="flowPara6228">Kitchen</flowPara></flowRoot>    <path
       id="rect6246"
       style="fill:#d38d5f;stroke:#000000;stroke-width:0.45137917;stroke-miterlimit:4;stroke-dasharray:none;stroke-opacity:1"
       d="m 471.76993,131.22835 v 67.80948 c 0.13898,1.24867 0.0561,2.52478 0,3.79025 v 95.59236 h 50.28128 V 131.22835 Z"
       inkscape:connector-curvature="0" />
    <rect
       style="fill:#d38d5f;stroke:#000000;stroke-width:0.52916667;stroke-miterlimit:4;stroke-dasharray:none;stroke-opacity:1"
       id="rect6248"
       width="197.31871"
       height="6.0627565"
       x="520.53937"
       y="214.48883" />
    <rect
       style="fill:#e9c6af;stroke:#000000;stroke-width:0.52916667;stroke-miterlimit:4;stroke-dasharray:none;stroke-opacity:1"
       id="rect6250"
       width="65.778336"
       height="82.431198"
       x="726.07941"
       y="214.46935" />
    <rect
       style="fill:#999999;stroke:#000000;stroke-width:0.02445785;stroke-miterlimit:4;stroke-dasharray:none;stroke-opacity:1"
       id="rect6290"
       width="80.892639"
       height="77.878014"
       x="522.05121"
       y="220.54243" />
    <rect
       style="fill:#a05a2c;stroke:#000000;stroke-width:0.52916667;stroke-miterlimit:4;stroke-dasharray:none;stroke-opacity:1"
       id="rect6292"
       width="114.45494"
       height="77.213516"
       x="602.94385"
       y="220.54243" />
    <rect
       style="fill:#e6e6e6;stroke:#000000;stroke-width:0.52916667;stroke-miterlimit:4;stroke-dasharray:none;stroke-opacity:1"
       id="rect6294"
       width="55.935246"
       height="49.887627"
       x="534.46094"
       y="235.01453" />
    <rect
       style="fill:#e6e6e6;stroke:#000000;stroke-width:0.52916667;stroke-miterlimit:4;stroke-dasharray:none;stroke-opacity:1"
       id="rect6296"
       width="97.829742"
       height="37.259754"
       x="522.05121"
       y="131.22833" />
    <rect
       style="fill:#f2f2f2;stroke:#000000;stroke-width:0.52916664;stroke-miterlimit:4;stroke-dasharray:none;stroke-opacity:1"
       id="rect6298"
       width="52.160713"
       height="175.38094"
       x="735.54169"
       y="-166.3988" />
    <rect
       style="fill:#f2f2f2;stroke:#000000;stroke-width:0.51095515;stroke-miterlimit:4;stroke-dasharray:none;stroke-opacity:1"
       id="rect6300"
       width="32.842533"
       height="124.3442"
       x="438.9274"
       y="174.07625" />
    <path
       id="path6302"
       d="m 1.4998566,201.38601 a 1.3590726,1.2473227 0 0 0 -1.35907006,1.2473 1.3590726,1.2473227 0 0 0 1.35907006,1.24731 1.3590726,1.2473227 0 0 0 1.35907,-1.24731 1.3590726,1.2473227 0 0 0 -1.35907,-1.2473 m 0.67954,-11.22591 c 6.1158199,0 6.2653199,4.45293 3.0579099,5.92478 -1.34548,0.61116 -1.94347,1.92089 -2.2016999,3.08088 0.6523599,0.24939 1.2231699,0.63615 1.6580699,1.13506 5.0285696,-2.49466 10.4376795,-1.50928 10.4376795,2.95614 0,5.61298 -4.85189,5.73767 -6.4555999,2.78153 -0.6795296,-1.23486 -2.1201496,-1.78365 -3.3840896,-2.02064 -0.27183,0.59872 -0.69312,1.11012 -1.23675,1.53417 2.70455,4.60266 1.63088,9.5545 -3.23459996,9.5545 -6.11583004,0 -6.23814004,-4.46542 -3.03072994,-5.93722 1.33189004,-0.61121 1.92988994,-1.90844 2.20169994,-3.05595 -0.6659399,-0.24938 -1.25034994,-0.64864 -1.68524994,-1.14755 -5.0149801,2.46972 -10.3969006,1.49679 -10.3969006,-2.95614 0,-5.61298 4.8382905,-5.75017 6.4420005,-2.79402 0.67953,1.23486 2.10656,1.7712 3.3705001,2.00819 0.25822,-0.59871 0.69313,-1.12256 1.25034,-1.52172 -2.7045501,-4.60261 -1.6308801,-9.54201 3.20742,-9.54201 z"
       inkscape:connector-curvature="0"
       style="stroke-width:1.30199921" />
    <path
       id="path6313"
       d="m 772.20583,151.29356 a 7.4839355,8.3910716 0.50547757 0 0 7.40962,8.45676 l 9.97816,0.0881 a 7.4839355,8.3910716 0.50547757 0 0 7.55768,-8.32473 7.4839355,8.3910716 0.50547757 0 0 -7.40963,-8.45676 l -9.97816,-0.0881 a 7.4839355,8.3910716 0.50547757 0 0 -7.55767,8.32472 m 4.93973,5.63784 0.0245,-2.79692 2.49456,0.0225 -0.0245,2.79691 -2.49456,-0.0225 m 0.0368,-4.19538 0.0246,-2.7969 2.49456,0.0225 -0.0246,2.79692 -2.49455,-0.0225 m 0.0368,-4.19537 0.0245,-2.79691 2.49455,0.0225 -0.0245,2.7969 -2.49456,-0.0225 m 3.6678,8.42376 0.0245,-2.79692 2.49457,0.0225 -0.0245,2.79691 -2.49456,-0.0225 m 0.0368,-4.19538 0.0245,-2.79691 2.49456,0.0225 -0.0246,2.79691 -2.49456,-0.0225 m 0.0368,-4.19537 0.0245,-2.79692 2.49456,0.0225 -0.0245,2.79691 -2.49456,-0.0225 m 3.6678,8.42375 0.0246,-2.79691 2.49455,0.0225 -0.0245,2.79691 -2.49456,-0.0225 m 0.0368,-4.19537 0.0245,-2.79691 2.49456,0.0225 -0.0245,2.79691 -2.49456,-0.0225 m 0.0368,-4.19537 0.0245,-2.79692 2.49456,0.0225 -0.0245,2.79691 -2.49456,-0.0225 m 4.9644,2.84094 a 2.4946452,2.7970239 0.50547757 0 1 2.51923,-2.77493 2.4946452,2.7970239 0.50547757 0 1 2.4699,2.81894 2.4946452,2.7970239 0.50547757 0 1 -2.51924,2.7749 2.4946452,2.7970239 0.50547757 0 1 -2.46989,-2.81891 z"
       inkscape:connector-curvature="0"
       style="stroke-width:1.3207556" />
    <path
       id="path6324"
       d="m 491.12607,21.946744 a 1.6090983,2.0410697 0 0 0 -1.6091,2.041083 v 18.369628 a 1.6090983,2.0410697 0 0 0 1.6091,2.041084 h 8.04549 a 1.6090983,2.0410697 0 0 0 1.6091,-2.041084 V 23.987827 a 1.6090983,2.0410697 0 0 0 -1.6091,-2.041083 h -8.04549 m 0,2.041083 h 8.04549 v 18.369628 h -8.04549 V 23.987827 m 1.6091,3.061604 V 39.29585 h 4.82729 V 27.049431 h -4.82729 m 0.80454,1.020522 h 3.2182 v 4.082164 h -3.2182 v -4.082164 m 0,6.123208 h 3.2182 v 4.082167 h -3.2182 z"
       inkscape:connector-curvature="0"
       style="stroke-width:0.9061293" />
    <path
       id="path6394-3"
       d="m 434.59979,227.93344 4.00655,24.07707 H 418.5736 l 4.00655,-24.07707 m 4.00655,27.51662 h 4.00655 V 289.846 h 6.00982 v 6.8791 h -16.0262 v -6.8791 h 6.00983 z"
       inkscape:connector-curvature="0"
       style="stroke-width:2.62496376" />
    <path
       id="path6420"
       d="m 612.46301,-181.34146 h 2.65185 v 1.77646 h -2.65185 v -1.77646 m -16.79503,0 h 2.65185 v 1.77646 h -2.65185 v -1.77646 m 10.60738,-8.88247 v 2.66473 h -1.76789 v -2.66473 h 1.76789 m -7.1423,2.22062 1.88281,1.90085 -1.25521,1.25242 -1.88281,-1.88306 1.25521,-1.27021 m 10.6339,1.89195 1.87398,-1.89195 1.26404,1.27021 -1.88281,1.88306 -1.25521,-1.26132 m -4.37554,0.32866 a 5.3036935,5.3294667 0 0 1 5.30369,5.32947 c 0,1.97189 -1.06958,3.6951 -2.65184,4.61886 v 1.59884 a 0.88394887,0.88824444 0 0 1 -0.88395,0.88826 h -3.5358 a 0.88394887,0.88824444 0 0 1 -0.88395,-0.88826 v -1.59884 c -1.58227,-0.92376 -2.65184,-2.64697 -2.65184,-4.61886 a 5.3036935,5.3294667 0 0 1 5.30369,-5.32947 m 1.7679,13.32366 v 0.88824 a 0.88394887,0.88824444 0 0 1 -0.88396,0.88827 h -1.76789 a 0.88394887,0.88824444 0 0 1 -0.88395,-0.88827 v -0.88824 h 3.5358 m -2.65185,-2.66472 h 1.76789 v -1.89196 c 1.52924,-0.39083 2.65185,-1.78539 2.65185,-3.43751 a 3.5357955,3.5529777 0 0 0 -3.53579,-3.55296 3.5357955,3.5529777 0 0 0 -3.5358,3.55296 c 0,1.65212 1.12261,3.04668 2.65185,3.43751 z"
       inkscape:connector-curvature="0"
       style="stroke-width:0.88609403" />
    <path
       id="path6420-1"
       d="m 639.80373,-179.38227 h 2.65185 v 1.77646 h -2.65185 v -1.77646 m -16.79503,0 h 2.65185 v 1.77646 h -2.65185 v -1.77646 m 10.60738,-8.88247 v 2.66473 h -1.76789 v -2.66473 h 1.76789 m -7.1423,2.22062 1.88281,1.90085 -1.25521,1.25242 -1.88281,-1.88306 1.25521,-1.27021 m 10.6339,1.89195 1.87398,-1.89195 1.26404,1.27021 -1.88281,1.88306 -1.25521,-1.26132 m -4.37554,0.32866 a 5.3036936,5.3294666 0 0 1 5.30369,5.32947 c 0,1.97189 -1.06958,3.6951 -2.65184,4.61886 v 1.59884 a 0.88394889,0.88824446 0 0 1 -0.88395,0.88826 h -3.5358 a 0.88394889,0.88824446 0 0 1 -0.88395,-0.88826 v -1.59884 c -1.58227,-0.92376 -2.65184,-2.64697 -2.65184,-4.61886 a 5.3036936,5.3294666 0 0 1 5.30369,-5.32947 m 1.7679,13.32366 v 0.88824 a 0.88394889,0.88824446 0 0 1 -0.88396,0.88827 h -1.76789 a 0.88394889,0.88824446 0 0 1 -0.88395,-0.88827 v -0.88824 h 3.5358 m -2.65185,-2.66472 h 1.76789 v -1.89196 c 1.52924,-0.39083 2.65185,-1.78539 2.65185,-3.43751 a 3.5357956,3.5529777 0 0 0 -3.53579,-3.55296 3.5357956,3.5529777 0 0 0 -3.5358,3.55296 c 0,1.65212 1.12261,3.04668 2.65185,3.43751 z"
       inkscape:connector-curvature="0"
       style="stroke-width:0.88609403" />
    <path
       id="path6420-1-4"
       d="m 667.77397,-179.38227 h 2.65185 v 1.77646 h -2.65185 v -1.77646 m -16.79503,0 h 2.65185 v 1.77646 h -2.65185 v -1.77646 m 10.60738,-8.88247 v 2.66473 h -1.76789 v -2.66473 h 1.76789 m -7.1423,2.22062 1.88281,1.90085 -1.25521,1.25242 -1.88281,-1.88306 1.25521,-1.27021 m 10.6339,1.89195 1.87398,-1.89195 1.26404,1.27021 -1.88281,1.88306 -1.25521,-1.26132 m -4.37554,0.32866 a 5.3036936,5.3294666 0 0 1 5.30369,5.32947 c 0,1.97189 -1.06958,3.6951 -2.65184,4.61886 v 1.59884 a 0.88394889,0.88824448 0 0 1 -0.88395,0.88826 h -3.5358 a 0.88394889,0.88824448 0 0 1 -0.88395,-0.88826 v -1.59884 c -1.58227,-0.92376 -2.65184,-2.64697 -2.65184,-4.61886 a 5.3036936,5.3294666 0 0 1 5.30369,-5.32947 m 1.7679,13.32366 v 0.88824 a 0.88394889,0.88824448 0 0 1 -0.88396,0.88827 h -1.76789 a 0.88394889,0.88824448 0 0 1 -0.88395,-0.88827 v -0.88824 h 3.5358 m -2.65185,-2.66472 h 1.76789 v -1.89196 c 1.52924,-0.39083 2.65185,-1.78539 2.65185,-3.43751 a 3.5357956,3.5529777 0 0 0 -3.53579,-3.55296 3.5357956,3.5529777 0 0 0 -3.5358,3.55296 c 0,1.65212 1.12261,3.04668 2.65185,3.43751 z"
       inkscape:connector-curvature="0"
       style="stroke-width:0.88609403" />
    <path
       id="path6549-4"
       d="m 566.96429,-179.25 c -0.51081,0 -0.81182,-0.0474 -0.89391,-0.13421 l -0.38311,5.86145 c 0.48344,0.39471 1.11283,0.59207 1.87905,0.78942 0.76622,0.19736 1.87906,0.19736 3.33852,0.16381 1.45034,-0.0868 2.96453,-0.39471 4.52434,-0.98678 l -0.72061,-9.0586 c -0.80272,0.78942 -1.9794,1.57884 -3.54832,2.34853 -1.39561,0.59206 -2.59967,0.98677 -3.59393,0.98677 h -0.60203 m -0.0821,-2.34853 c -0.62939,0.59207 -0.8848,0.98678 -0.76621,1.18413 0.0821,0.19736 0.51993,0.19736 1.32263,0.18354 0.99426,-0.0868 2.12534,-0.3947 3.375,-0.98677 0.85743,-0.39471 1.59629,-0.78942 2.22569,-1.18413 0.62938,-0.39471 1.0581,-0.78942 1.28614,-1.18413 0.22806,-0.39471 0.31014,-0.59207 0.25539,-0.59207 -0.0639,-0.15394 -0.34662,-0.19735 -0.85743,-0.19735 -1.03074,0 -2.30777,0.39471 -3.84933,0.98677 -1.31351,0.59207 -2.30777,1.18413 -2.99189,1.7762 m 8.54697,-3.01954 c 0.0639,0.12434 0.0912,0.19736 0.0912,0.39472 l 1.06723,13.8346 c 0,1.57883 -0.55642,2.98006 -1.62365,3.90763 -1.08548,0.98677 -2.55406,1.38149 -4.40575,1.38149 -1.82432,0 -3.28379,-0.39472 -4.37838,-1.57885 -1.0946,-0.98677 -1.65101,-2.26958 -1.65101,-3.92737 l 0.63851,-10.04538 c 0,-0.19735 0.10032,-0.59206 0.301,-0.78942 0.20068,-0.39471 0.38311,-0.59206 0.55643,-0.78942 l 0.30099,-0.19735 c 0.8848,-0.78942 1.95204,-1.38149 3.21082,-2.01302 0.84831,-0.39472 1.6875,-0.78943 2.49933,-0.98678 0.80271,-0.19341 1.53244,-0.19736 2.17095,-0.18354 0.64763,0.077 1.05811,0.39471 1.2223,0.78942 z"
       inkscape:connector-curvature="0"
       style="stroke-width:0.93680513" />
    <path
       id="path6575-4"
       d="m 708.47856,-170.02737 h -16.93331 a 2.1166667,2.1355626 0 0 0 -2.11668,2.13557 v 12.81338 a 2.1166667,2.1355626 0 0 0 2.11668,2.13558 h 16.93331 a 2.1166667,2.1355626 0 0 0 2.11667,-2.13558 v -12.81338 a 2.1166667,2.1355626 0 0 0 -2.11667,-2.13557 m -12.95399,13.06963 -1.49226,1.50562 c -1.66158,-1.6551 -2.48706,-3.84402 -2.48706,-6.03298 0,-2.18898 0.82548,-4.3779 2.47649,-6.04366 l 1.49224,1.50558 c -1.22766,1.25998 -1.85207,2.89368 -1.85207,4.53808 0,1.64438 0.62441,3.27808 1.86266,4.52736 m 4.48733,-0.25626 a 4.2333332,4.271125 0 0 1 -4.23333,-4.2711 4.2333332,4.271125 0 0 1 4.23333,-4.27112 4.2333332,4.271125 0 0 1 4.23334,4.27112 4.2333332,4.271125 0 0 1 -4.23334,4.2711 m 5.99017,1.77252 -1.49225,-1.50556 c 1.22766,-1.25998 1.85208,-2.89368 1.85208,-4.53806 0,-1.6444 -0.62442,-3.2781 -1.86267,-4.5274 l 1.49226,-1.50559 c 1.66158,1.65509 2.48707,3.84401 2.48707,6.03299 0,2.18896 -0.82549,4.37788 -2.47649,6.04362 m -5.99017,-8.17921 a 2.1166667,2.1355626 0 0 0 -2.11667,2.13559 2.1166667,2.1355626 0 0 0 2.11667,2.13556 2.1166667,2.1355626 0 0 0 2.11666,-2.13556 2.1166667,2.1355626 0 0 0 -2.11666,-2.13559 z"
       inkscape:connector-curvature="0"
       style="stroke-width:1.06304681" />
    <path
       id="path6575-4-9"
       d="m 684.43928,98.335726 h -15.7238 A 1.9654761,2.2300569 0 0 0 666.75,100.5658 v 13.38033 a 1.9654761,2.2300569 0 0 0 1.96548,2.23007 h 15.7238 a 1.9654761,2.2300569 0 0 0 1.96548,-2.23007 V 100.5658 a 1.9654761,2.2300569 0 0 0 -1.96548,-2.230074 m -12.02871,13.647934 -1.38566,1.57223 c -1.5429,-1.72832 -2.30943,-4.0141 -2.30943,-6.29992 0,-2.28583 0.76653,-4.57161 2.2996,-6.31106 l 1.38566,1.57218 c -1.13997,1.31574 -1.71979,3.02173 -1.71979,4.73888 0,1.71715 0.57982,3.42312 1.72962,4.72769 m 4.16681,-0.2676 a 3.9309522,4.4601135 0 0 1 -3.93095,-4.46009 3.9309522,4.4601135 0 0 1 3.93095,-4.4601 3.9309522,4.4601135 0 0 1 3.93095,4.4601 3.9309522,4.4601135 0 0 1 -3.93095,4.46009 m 5.5623,1.85095 -1.38566,-1.57218 c 1.13997,-1.31574 1.71979,-3.02171 1.71979,-4.73886 0,-1.71715 -0.57982,-3.42314 -1.72962,-4.72771 l 1.38566,-1.57222 c 1.5429,1.72832 2.30943,4.0141 2.30943,6.29993 0,2.28582 -0.76653,4.5716 -2.2996,6.31104 m -5.5623,-8.54111 a 1.9654761,2.2300569 0 0 0 -1.96548,2.23007 1.9654761,2.2300569 0 0 0 1.96548,2.23007 1.9654761,2.2300569 0 0 0 1.96547,-2.23007 1.9654761,2.2300569 0 0 0 -1.96547,-2.23007 z"
       inkscape:connector-curvature="0"
       style="stroke-width:1.04679549" />
    <path
       id="path6461-1"
       d="m 640.55624,109.10805 h 5.47121 V 98.335718 h 3.64747 v 10.772332 h 5.47121 l 7.29494,17.23571 h -29.17976 l 7.29493,-17.23571 m 10.94242,19.39015 a 3.6474704,4.3089227 0 0 1 -3.64748,4.30895 3.6474704,4.3089227 0 0 1 -3.64746,-4.30895 z"
       inkscape:connector-curvature="0"
       style="stroke-width:1.98221254" />
    <path
       id="path6631"
       d="m 550.54318,-161.88321 -1.23593,-1.20208 c 1.27099,-1.22767 2.05112,-2.94128 2.05112,-4.82541 0,-1.89267 -0.78013,-3.59774 -2.05112,-4.82541 l 1.23593,-1.20208 c 1.58655,1.54309 2.56828,3.67446 2.56828,6.02749 0,2.35303 -0.98173,4.4844 -2.56828,6.02749 m -2.48062,-2.4127 -1.23593,-1.20209 c 0.63111,-0.61383 1.02556,-1.46637 1.02556,-2.4127 0,-0.94633 -0.39445,-1.79887 -1.02556,-2.4127 l 1.23593,-1.20209 c 0.95543,0.92926 1.54272,2.2081 1.54272,3.61479 0,1.40669 -0.58729,2.68553 -1.54272,3.61479 m -11.60545,-11.28771 h 7.01235 a 1.7530896,1.7050926 0 0 1 1.75309,1.70511 v 11.93562 a 1.7530896,1.7050926 0 0 1 -1.75309,1.70511 h -7.01235 a 1.7530896,1.7050926 0 0 1 -1.75309,-1.70511 v -11.93562 a 1.7530896,1.7050926 0 0 1 1.75309,-1.70511 m 3.50618,1.70511 a 1.7530896,1.7050926 0 0 0 -1.7531,1.70507 1.7530896,1.7050926 0 0 0 1.7531,1.7051 1.7530896,1.7050926 0 0 0 1.75309,-1.7051 1.7530896,1.7050926 0 0 0 -1.75309,-1.70507 m 0,5.11527 a 3.506179,3.4101851 0 0 0 -3.50618,3.41018 3.506179,3.4101851 0 0 0 3.50618,3.41017 3.506179,3.4101851 0 0 0 3.50617,-3.41017 3.506179,3.4101851 0 0 0 -3.50617,-3.41018 m 0,1.70508 a 1.7530896,1.7050926 0 0 1 1.75309,1.7051 1.7530896,1.7050926 0 0 1 -1.75309,1.7051 1.7530896,1.7050926 0 0 1 -1.7531,-1.7051 1.7530896,1.7050926 0 0 1 1.7531,-1.7051 z"
       inkscape:connector-curvature="0"
       style="stroke-width:0.8644622" />
    <path
       id="path6686"
       d="m 448.43372,276.99474 1.62043,1.43509 c 3.58567,-3.18574 9.41239,-3.18574 13.00955,0 l 1.62044,-1.43509 c -4.48207,-3.9898 -11.75685,-3.9898 -16.25042,0 m 3.25238,2.88039 1.62045,1.43509 c 1.79283,-1.58777 4.70044,-1.58777 6.50476,0 l 1.62045,-1.43509 c -2.68926,-2.38168 -7.05641,-2.38168 -9.74566,0 m 12.9176,7.37909 a 1.1492527,1.0178047 0 0 1 -1.14925,-1.01783 1.1492527,1.0178047 0 0 1 1.14925,-1.0178 1.1492527,1.0178047 0 0 1 1.14925,1.0178 1.1492527,1.0178047 0 0 1 -1.14925,1.01783 m -3.44776,6.10683 h -9.19402 V 288.272 h 9.19402 v 5.08905 m 3.44776,-10.17808 h -16.08953 a 3.447758,3.0534143 0 0 0 -3.44777,3.05342 v 5.08903 h 4.59702 v 4.07121 h 13.79103 v -4.07121 h 4.59701 v -5.08903 a 3.447758,3.0534143 0 0 0 -3.44776,-3.05342 z"
       inkscape:connector-curvature="0"
       style="stroke-width:1.08153355" />
    <path
       id="path6734"
       d="m 576.70368,-157.18054 h 13.69954 a 1.9570768,2.0410733 0 0 1 1.95707,2.04105 v 16.32861 a 1.9570768,2.0410733 0 0 1 -1.95707,2.04105 h -13.69954 a 1.9570768,2.0410733 0 0 1 -1.95708,-2.04105 v -16.32861 a 1.9570768,2.0410733 0 0 1 1.95708,-2.04105 m 6.84977,2.04105 a 3.9141534,4.0821465 0 0 0 -3.91416,4.08217 h 3.19004 l -0.4012,-2.8269 2.00601,2.8269 h 3.03346 a 3.9141534,4.0821465 0 0 0 -3.91415,-4.08217 m -6.84977,6.12322 v 10.20539 h 13.69954 v -10.20539 z"
       inkscape:connector-curvature="0"
       style="stroke-width:0.99931687" />
    <path
       id="path6786"
       d="m 465.66248,36.637404 a 7.1311504,5.619246 0 0 0 7.13115,-5.61924 c 0,-3.10933 -3.19713,-5.61925 -7.13115,-5.61925 -3.94591,0 -7.13115,2.50992 -7.13115,5.61925 a 7.1311504,5.619246 0 0 0 7.13115,5.61924 m 8.31967,-14.04811 a 2.3770502,1.873082 0 0 1 2.37706,1.87309 v 13.11155 a 2.3770502,1.873082 0 0 1 -2.37706,1.8731 h -16.63934 c -1.31927,0 -2.37705,-0.84291 -2.37705,-1.8731 v -13.11155 c 0,-1.03957 1.05778,-1.87309 2.37705,-1.87309 h 16.63934 m -13.07378,8.42887 a 4.7541003,3.7461639 0 0 1 4.75411,-3.74615 4.7541003,3.7461639 0 0 1 4.7541,3.74615 4.7541003,3.7461639 0 0 1 -4.7541,3.74615 4.7541003,3.7461639 0 0 1 -4.75411,-3.74615 z"
       inkscape:connector-curvature="0"
       style="stroke-width:1.05503666" />
    <path
       id="path6383-1"
       d="m 548.36838,297.15041 92.32025,1.05746 -0.32325,-0.74368 10.82004,0.12274 -0.56174,-1.46571 -10.86047,-0.12835 -0.56173,-1.46572 10.85642,0.118 -0.56175,-1.46571 -10.82021,-0.12274 -0.24617,-0.74282 -92.31209,-1.03666 2.2509,5.87327 m 10.29477,-1.34776 -1.12347,-2.93143 70.55883,0.79511 1.12752,2.94183 -70.56288,-0.80551 m 5.12915,-0.6715 10.86044,0.12836 -0.56574,-1.47612 -10.8564,-0.11799 0.56171,1.46571 m 16.30896,0.19016 10.85648,0.11795 -0.56177,-1.46571 -10.86047,-0.12836 0.56575,1.47613 m 16.26843,0.18453 10.85656,0.11795 -0.56184,-1.46574 -10.86038,-0.12835 0.56566,1.4761 m 16.26857,0.18453 10.85641,0.11799 -0.5617,-1.46571 -10.8605,-0.12835 z"
       inkscape:connector-curvature="0"
       style="stroke-width:1.99278748" />
    <rect
       style="fill:#000080;stroke:#000000;stroke-width:0.62677252;stroke-miterlimit:4;stroke-dasharray:none;stroke-opacity:1"
       id="rect6825"
       width="277.33691"
       height="50.551205"
       x="138.7337"
       y="245.68729" />
    <rect
       style="fill:#e6e6e6;stroke:#000000;stroke-width:0.52916664;stroke-miterlimit:4;stroke-dasharray:none;stroke-opacity:1"
       id="rect6829"
       width="33.010406"
       height="41.560989"
       x="3.7797618"
       y="254.66667" />
    <path
       id="path6394-0"
       d="m 25.148003,230.85421 5.342067,23.81246 H 3.7797618 l 5.342057,-23.81246 m 5.3420662,27.2142 h 5.342063 v 34.01793 h 8.013093 v 6.80349 H 6.4507908 v -6.80349 h 8.0130942 z"
       inkscape:connector-curvature="0"
       style="stroke-width:3.01434469" />
    <path
       id="path6420-1-4-0"
       d="m 33.529928,263.60584 h 2.65185 v 1.77646 h -2.65185 v -1.77646 m -16.79503,0 h 2.65185 v 1.77646 h -2.65185 v -1.77646 m 10.60738,-8.88247 v 2.66473 h -1.76789 v -2.66473 h 1.76789 m -7.1423,2.22062 1.88281,1.90085 -1.25521,1.25242 -1.88281,-1.88306 1.25521,-1.27021 m 10.6339,1.89195 1.87398,-1.89195 1.26404,1.27021 -1.88281,1.88306 -1.25521,-1.26132 m -4.37554,0.32866 a 5.3036936,5.3294666 0 0 1 5.30369,5.32947 c 0,1.97189 -1.06958,3.6951 -2.65184,4.61886 v 1.59884 a 0.88394889,0.88824448 0 0 1 -0.88395,0.88826 h -3.5358 a 0.88394889,0.88824448 0 0 1 -0.88395,-0.88826 v -1.59884 c -1.58227,-0.92376 -2.65184,-2.64697 -2.65184,-4.61886 a 5.3036936,5.3294666 0 0 1 5.30369,-5.32947 m 1.7679,13.32366 v 0.88824 a 0.88394889,0.88824448 0 0 1 -0.88396,0.88827 h -1.76789 a 0.88394889,0.88824448 0 0 1 -0.88395,-0.88827 v -0.88824 h 3.5358 m -2.65185,-2.66472 h 1.76789 v -1.89196 c 1.52924,-0.39083 2.65185,-1.78539 2.65185,-3.43751 a 3.5357956,3.5529777 0 0 0 -3.53579,-3.55296 3.5357956,3.5529777 0 0 0 -3.5358,3.55296 c 0,1.65212 1.12261,3.04668 2.65185,3.43751 z"
       inkscape:connector-curvature="0"
       style="stroke-width:0.88609403" />
    <rect
       style="fill:#e6e6e6;stroke:#000000;stroke-width:0.53014928;stroke-miterlimit:4;stroke-dasharray:none;stroke-opacity:1"
       id="rect6876"
       width="47.625008"
       height="204.10713"
       x="426.35715"
       y="-181.51785" />
    <rect
       style="fill:#e6e6e6;stroke:#000000;stroke-width:0.52916664;stroke-miterlimit:4;stroke-dasharray:none;stroke-opacity:1"
       id="rect6880"
       width="49.892818"
       height="28.718822"
       x="424.84528"
       y="-182.26643" />
    <rect
       style="fill:#000080;stroke:#000000;stroke-width:0.52916664;stroke-miterlimit:4;stroke-dasharray:none;stroke-opacity:1"
       id="rect6882"
       width="28.331772"
       height="29.574184"
       x="138.7337"
       y="216.11311" />
    <rect
       style="fill:#000080;stroke:#000000;stroke-width:0.52916664;stroke-miterlimit:4;stroke-dasharray:none;stroke-opacity:1"
       id="rect6884"
       width="28.267046"
       height="24.282516"
       x="387.80356"
       y="221.40479" />
    <rect
       style="fill:#ffe680;stroke:#000000;stroke-width:0.53021479;stroke-miterlimit:4;stroke-dasharray:none;stroke-opacity:1"
       id="rect6886"
       width="353.02979"
       height="382.51086"
       x="27.970238"
       y="-182.27275" />
    <rect
       style="fill:#e6e6e6;stroke:#000000;stroke-width:0.52966601;stroke-miterlimit:4;stroke-dasharray:none;stroke-opacity:1"
       id="rect6827-4"
       width="97.730003"
       height="132.99191"
       x="36.801659"
       y="163.22426" />
    <rect
       style="fill:#c87137;stroke:#000000;stroke-width:0.40382126;stroke-miterlimit:4;stroke-dasharray:none;stroke-opacity:1"
       id="rect6823-4"
       width="155.85153"
       height="60.601543"
       x="195.72899"
       y="158.59805" />
    <path
       id="path6346-8-6"
       d="m 32.05238,286.60566 h 1.73869 v 3.59078 h -1.73869 v -3.59078 M 28.766249,283.0149 H 42.29326 c 1.06061,0 1.92995,0.71814 1.92995,1.59429 v 11.1745 a 1.9299466,1.5943047 0 0 1 -1.92995,1.59429 H 28.766249 c -1.0606,0 -1.92994,-0.71814 -1.92994,-1.59429 v -11.1745 a 1.9299466,1.5943047 0 0 1 1.92994,-1.59429 m 6.763511,1.43629 a 6.9547629,5.7452421 0 0 0 -6.954761,5.74525 6.9547629,5.7452421 0 0 0 6.954761,5.74525 6.9547629,5.7452421 0 0 0 6.95476,-5.74525 6.9547629,5.7452421 0 0 0 -6.95476,-5.74525 m 1.73869,2.51354 h 1.73869 v 2.87264 h -1.73869 v -2.87264 m -3.04271,6.28388 a 1.304018,1.0772329 0 0 1 1.30402,-1.07725 1.304018,1.0772329 0 0 1 1.30402,1.07725 v 0.53861 h -2.60804 z"
       inkscape:connector-curvature="0"
       style="stroke-width:0.7901423" />
    <path
       id="path6549-6"
       d="m 260.69203,186.9546 c -0.66052,0 -1.04975,-0.0594 -1.15591,-0.16664 l -0.49539,7.25682 c 0.62514,0.38147 1.43899,0.6792 2.42978,0.91754 0.99078,0.2504 2.42977,0.32156 4.31698,0.20266 1.87541,-0.10718 3.83338,-0.52431 5.85034,-1.22734 l -0.93181,-11.22488 c -1.03797,1.0367 -2.55953,2.01382 -4.58827,2.90749 -1.80464,0.77453 -3.36159,1.22738 -4.64724,1.33462 h -0.77848 m -0.10614,-2.90754 c -0.81386,0.71496 -1.14412,1.19164 -0.99078,1.4538 0.10614,0.26211 0.67232,0.33372 1.71028,0.22653 1.28566,-0.10719 2.74824,-0.52431 4.36416,-1.22734 1.10873,-0.48856 2.06413,-1.00095 2.87799,-1.56102 0.81385,-0.56003 1.36822,-1.02476 1.6631,-1.40609 0.29489,-0.3693 0.40103,-0.63155 0.33024,-0.77454 -0.0826,-0.19051 -0.44821,-0.28599 -1.10873,-0.28599 -1.33284,0 -2.98414,0.42875 -4.97751,1.28693 -1.69848,0.75072 -2.98413,1.51336 -3.86876,2.28786 m 11.05194,-3.7416 c 0.0826,0.15492 0.11796,0.32156 0.11796,0.51238 l 1.38002,17.1233 c 0,2.06146 -0.7195,3.68202 -2.09952,4.84978 -1.40361,1.16776 -3.30261,1.76355 -5.697,1.76355 -2.359,0 -4.24621,-0.60768 -5.66161,-1.84696 -1.41541,-1.19158 -2.1349,-2.81218 -2.1349,-4.86172 l 0.82565,-12.45221 c 0,-0.2977 0.12972,-0.63156 0.38922,-1.00095 0.2595,-0.38147 0.49539,-0.6792 0.7195,-0.89367 l 0.38922,-0.34542 c 1.14412,-0.96523 2.52414,-1.79931 4.15185,-2.49045 1.09694,-0.50049 2.18208,-0.86988 3.23185,-1.10818 1.03796,-0.23823 1.98156,-0.32155 2.80721,-0.22653 0.83745,0.0955 1.36823,0.41704 1.58054,0.97712 z"
       inkscape:connector-curvature="0"
       style="stroke-width:1.18553507" />
    <path
       id="path6797-4"
       d="m 325.22158,203.57511 h -23.0027 v -11.20972 h 23.0027 m 3.28612,-1.8683 h -29.57493 c -1.82378,0 -3.2861,0.83139 -3.2861,1.8683 v 11.20972 a 3.286102,1.8682874 0 0 0 3.2861,1.8683 h 29.57493 a 3.286102,1.8682874 0 0 0 3.28609,-1.8683 v -11.20972 c 0,-1.03691 -1.47875,-1.8683 -3.28609,-1.8683 z"
       inkscape:connector-curvature="0"
       style="stroke-width:1.23888874" />
    <path
       id="path6697-9"
       d="m 232.98453,192.62188 h 2.87261 v 2.04104 h -2.87261 v -2.04104 m -22.98096,-3.06161 h 22.98096 a 2.8726194,2.0410714 0 0 1 2.87261,2.04105 h -4.30892 v 2.04108 h -20.10834 v 4.08213 h 4.30893 v 3.06161 h 15.79941 v 1.02056 h 4.30892 a 2.8726194,2.0410714 0 0 1 -2.87261,2.04104 h -5.74525 v 1.02057 h -2.87261 v -1.02057 h -4.30893 v 1.02057 h -5.74525 v -1.02057 h -4.30892 a 2.8726194,2.0410714 0 0 1 -2.87262,-2.04104 v -10.20538 a 2.8726194,2.0410714 0 0 1 2.87262,-2.04105 m 21.54465,10.20534 h -14.3631 v -5.10269 h 14.3631 v 1.02056 h 4.30892 v 2.04105 h -4.30892 v 2.04108 m -8.61786,-3.0616 v 2.04108 h 2.87261 v -2.04108 h -2.87261 m -11.49048,-6.12322 v 2.04109 h 1.43632 v -2.04109 h -1.43632 m 2.87261,0 v 2.04109 h 1.43632 v -2.04109 h -1.43632 m 2.87263,0 v 2.04109 h 1.43631 v -2.04109 h -1.43631 m 2.87262,0 v 2.04109 h 1.43631 v -2.04109 h -1.43631 m 2.87262,0 v 2.04109 h 1.43631 v -2.04109 h -1.43631 m 2.87261,0 v 2.04109 h 1.43631 v -2.04109 h -1.43631 m 7.18156,8.1643 h 2.87261 v 2.04105 h -2.87261 z"
       inkscape:connector-curvature="0"
       style="stroke-width:1.21070445" />
    <rect
       style="fill:#666666;stroke:#000000;stroke-width:0.38707876;stroke-miterlimit:4;stroke-dasharray:none;stroke-opacity:1"
       id="rect6878-4"
       width="55.940475"
       height="28.718832"
       x="368.90482"
       y="153.54761"
       transform="scale(1,-1)" />
    <path
       id="path6357-8-6"
       d="m 393.54881,-182.2738 h 9.67619 l 4.83809,16.3286 h -19.35237 l 4.83809,-16.3286 m 3.62858,17.6893 h 2.41903 v 6.80359 h 6.04762 v 2.7214 h -14.51427 v -2.7214 h 6.04762 z"
       inkscape:connector-curvature="0"
       style="stroke-width:1.28289437" />
    <path
       id="path6516-3"
       d="m 276.96377,-144.03516 v -27.36549 h -61.0466 v 27.36549 h 61.0466 m 0,-31.92643 a 6.7829551,4.5609132 0 0 1 6.78296,4.56094 v 27.36549 a 6.7829551,4.5609132 0 0 1 -6.78296,4.56084 h -16.95739 v 4.56095 h -27.13182 v -4.56095 h -16.95739 a 6.7829551,4.5609132 0 0 1 -6.78294,-4.56084 v -27.36549 a 6.7829551,4.5609132 0 0 1 6.78294,-4.56094 h 61.0466 m -54.26364,9.1218 h 20.34885 v 9.12188 h -20.34885 v -9.12188 m 0,13.68273 h 20.34885 v 4.56096 h -20.34885 v -4.56096 m 27.13182,-13.68273 h 20.34887 v 4.56094 h -20.34887 v -4.56094 m 0,9.12188 h 20.34887 v 9.12181 h -20.34887 z"
       inkscape:connector-curvature="0"
       style="stroke-width:2.78102803" />
    <path
       id="path6483-5"
       d="M 299.35715,-114.69167 H 254 a 5.6696434,2.2930556 0 0 0 -5.66965,2.29307 v 6.87916 A 5.6696434,2.2930556 0 0 0 254,-103.22637 h 2.83482 v 1.14652 c 0,0.68792 1.13393,1.14651 2.83481,1.14651 h 5.66966 c 1.70089,0 2.83482,-0.45859 2.83482,-1.14651 v -1.14652 h 17.00891 v 1.14652 c 0,0.68792 1.13393,1.14651 2.83482,1.14651 h 5.66966 c 1.70088,0 2.83482,-0.45859 2.83482,-1.14651 v -1.14652 h 2.83483 a 5.6696434,2.2930556 0 0 0 5.66963,-2.29307 v -6.87916 a 5.6696434,2.2930556 0 0 0 -5.66963,-2.29307 m -17.00894,5.73265 H 254 v -2.29307 h 28.34821 v 2.29307 m 11.33929,1.14651 a 5.6696434,2.2930556 0 0 1 -5.66966,-2.29302 5.6696434,2.2930556 0 0 1 5.66966,-2.29307 5.6696434,2.2930556 0 0 1 5.66965,2.29307 5.6696434,2.2930556 0 0 1 -5.66965,2.29302 m -34.01787,2.29307 H 254 v -1.14651 h 5.66963 v 1.14651 m 11.33929,0 h -5.66963 v -1.14651 h 5.66963 v 1.14651 m 11.33929,0 h -5.66964 v -1.14651 h 5.66964 z"
       inkscape:connector-curvature="0"
       style="stroke-width:1.80283153" />
    <path
       id="path6505-4"
       d="m 194.78267,-119.75962 a 1.3679903,1.314738 0 0 1 -1.36798,1.31473 h -2.736 a 1.3679903,1.314738 0 0 1 -1.36798,-1.31473 v -1.31472 h -2.736 a 2.7359806,2.6294758 0 0 1 -2.73597,-2.62944 v -7.88843 a 2.7359806,2.6294758 0 0 1 2.73597,-2.62954 h 54.71962 a 2.7359806,2.6294758 0 0 1 2.73597,2.62954 v 7.88843 a 2.7359806,2.6294758 0 0 1 -2.73597,2.62944 h -2.73597 v 1.31472 a 1.3679903,1.314738 0 0 1 -1.36799,1.31473 h -2.73599 a 1.3679903,1.314738 0 0 1 -1.36799,-1.31473 v -1.31472 h -38.30372 v 1.31472 m -5.47196,-9.20314 v 2.62944 h 5.47196 v -2.62944 h -5.47196 m 8.20794,0 v 2.62944 h 5.47196 v -2.62944 h -5.47196 m 39.67172,-1.31473 a 2.7359806,2.6294758 0 0 0 -2.73599,2.62945 2.7359806,2.6294758 0 0 0 2.73599,2.62944 2.7359806,2.6294758 0 0 0 2.73598,-2.62944 2.7359806,2.6294758 0 0 0 -2.73598,-2.62945 z"
       inkscape:connector-curvature="0"
       style="stroke-width:2.68219972" />
    <path
       id="path6383-10"
       d="m 211.67529,-172.85776 66.87231,0.30714 -0.34939,-0.67039 7.83733,0.0349 -0.63415,-1.32179 -7.86743,-0.0397 -0.63413,-1.32178 7.86288,0.0303 -0.63416,-1.32178 -7.83746,-0.0349 -0.29355,-0.67014 -66.86315,-0.28839 2.54106,5.29653 m 7.22877,-1.29145 -1.26829,-2.64358 51.10735,0.22291 1.27283,2.65295 -51.11189,-0.23228 m 3.6016,-0.64345 7.86738,0.0397 -0.63866,-1.33117 -7.86286,-0.0303 0.63414,1.32179 m 11.81393,0.0573 7.86291,0.0303 -0.63417,-1.32178 -7.86741,-0.0397 0.63867,1.33118 m 11.78377,0.0525 7.86297,0.0303 -0.63422,-1.32181 -7.86735,-0.0397 0.6386,1.33115 m 11.78387,0.0525 7.86288,0.0303 -0.63414,-1.32179 -7.86741,-0.0397 z"
       inkscape:connector-curvature="0"
       style="stroke-width:1.61238146" />
    <path
       id="path6642-2"
       d="m 168.01232,-116.79004 c 0.0714,-0.0568 0.14287,-0.11357 0.1939,-0.15107 1.59204,-0.9544 3.44941,-1.47412 5.49048,-1.47412 1.91861,0 3.71475,0.47247 5.24555,1.3418 0.11224,0.0757 0.40822,0.255 0.5715,0.43468 -1.47977,-1.5119 -5.81705,1.71979 -5.81705,1.71979 -1.5308,-1.06775 -2.88812,-1.79536 -3.91886,-2.07887 -0.86745,-0.19857 -1.45936,0 -1.73491,0.18893 m 13.1445,1.42687 c -0.051,-0.0472 -0.10206,-0.0947 -0.14287,-0.14179 -0.36739,-0.37796 -0.83684,-0.47247 -1.22464,-0.44411 -0.39801,0.11322 -2.14312,0.68979 -4.28625,2.57023 0,0 2.41867,2.1734 3.89845,4.39402 1.47977,2.22062 2.35743,3.96877 1.81655,6.39728 1.63286,-1.68201 2.65339,-3.91209 2.65339,-6.35949 0,-2.47577 -1.02053,-4.72474 -2.71462,-6.41618 m -3.68414,7.32332 c -0.66335,-0.68036 -1.63285,-1.65365 -2.92893,-2.8443 -0.27556,-0.255 -0.5715,-0.51971 -0.87766,-0.80318 0,0 -0.47966,0.43468 -1.09198,1.01108 -0.78581,0.72761 -1.79614,1.68201 -2.36764,2.23951 -1.00013,0.99222 -3.87804,4.11052 -4.04132,5.85867 0,0 -0.66335,-1.37961 0.7654,-4.58299 0.91849,-2.08833 3.67393,-5.22552 4.84754,-6.24606 0,0 -1.05114,-1.07726 -2.37784,-1.82376 l -0.051,-0.0286 c -0.64294,-0.34965 -1.3369,-0.62365 -2.01046,-0.66147 -0.68376,0.0471 -1.11238,0.51029 -1.11238,0.51029 -1.7145,1.69143 -2.76565,3.9593 -2.76565,6.46342 a 10.205355,9.4494519 0 0 0 10.20535,9.449662 c 2.99017,0 5.68439,-1.190622 7.55196,-3.089952 0,0 -0.2143,-1.25679 -1.59203,-3.05219 -0.31636,-0.40632 -1.50019,-1.71033 -2.15333,-2.40016 z"
       inkscape:connector-curvature="0"
       style="stroke-width:0.98201329" />
    <path
       id="path7083"
       d="m 167.82143,-150.90176 a 3.3855914,8.8446517 0 0 0 -3.38559,8.84465 3.3855914,8.8446517 0 0 0 3.38559,8.84464 3.3855914,8.8446517 0 0 0 3.38559,-8.84464 3.3855914,8.8446517 0 0 0 -3.38559,-8.84465 m 0,23.58577 a 5.6426525,14.741087 0 0 1 -5.64267,-14.74112 5.6426525,14.741087 0 0 1 5.64267,-14.74112 5.6426525,14.741087 0 0 1 5.64267,14.74112 5.6426525,14.741087 0 0 1 -5.64267,14.74112 m 0,-47.17156 a 2.2570609,5.8964346 0 0 1 2.25707,5.89647 2.2570609,5.8964346 0 0 1 -2.25707,5.89648 c -1.25268,0 -2.25708,-2.65344 -2.25708,-5.89648 0,-3.27253 1.0044,-5.89647 2.25708,-5.89647 m 5.64267,-5.89635 h -11.28534 c -1.25268,0 -2.25703,2.62392 -2.25703,5.89635 v 47.17156 a 2.2570609,5.8964346 0 0 0 2.25703,5.89637 h 11.28534 a 2.2570609,5.8964346 0 0 0 2.25703,-5.89637 v -47.17156 c 0,-3.27243 -1.01566,-5.89635 -2.25703,-5.89635 z"
       inkscape:connector-curvature="0"
       style="stroke-width:1.82404852" />
    <rect
       style="fill:#c87137;stroke:#000000;stroke-width:0.4597764;stroke-miterlimit:4;stroke-dasharray:none;stroke-opacity:1"
       id="rect7094"
       width="41.646767"
       height="208.7112"
       x="16.596258"
       y="-182.30745" />
    <rect
       style="fill:#c87137;stroke:#000000;stroke-width:0.69033903;stroke-miterlimit:4;stroke-dasharray:none;stroke-opacity:1"
       id="rect7099"
       width="133.80357"
       height="33.260853"
       x="16.630953"
       y="-182.27275" />
    <path
       id="path6346-6"
       d="m 135.61786,-88.346726 h 1.73869 v 3.59078 h -1.73869 v -3.59078 m -3.28613,-3.59076 h 13.52701 c 1.06061,0 1.92995,0.71814 1.92995,1.59429 v 11.1745 a 1.9299466,1.5943047 0 0 1 -1.92995,1.59429 h -13.52701 c -1.0606,0 -1.92994,-0.71814 -1.92994,-1.59429 v -11.1745 a 1.9299466,1.5943047 0 0 1 1.92994,-1.59429 m 6.76351,1.43629 a 6.9547629,5.7452421 0 0 0 -6.95476,5.74525 6.9547629,5.7452421 0 0 0 6.95476,5.74525 6.9547629,5.7452421 0 0 0 6.95476,-5.74525 6.9547629,5.7452421 0 0 0 -6.95476,-5.74525 m 1.73869,2.51354 h 1.73869 v 2.87264 h -1.73869 v -2.87264 m -3.04271,6.28388 a 1.304018,1.0772329 0 0 1 1.30402,-1.07725 1.304018,1.0772329 0 0 1 1.30402,1.07725 v 0.53861 h -2.60804 z"
       inkscape:connector-curvature="0"
       style="stroke-width:0.7901423" />
    <path
       id="path6538-1"
       d="m 133.46986,-122.79661 -2.07478,4.11545 2.07478,4.15303 h -0.0144 l -2.90762,5.82544 -2.52773,-1.69123 2.07478,-4.15303 -2.07478,-4.13421 2.92223,-5.82551 2.52773,1.71006 m 8.76669,-0.20668 -2.07478,4.15295 2.07478,4.13428 -0.0144,0.0213 -2.90762,5.80676 -2.52773,-1.69131 2.07479,-4.1342 -2.07479,-4.13428 2.92223,-5.82544 2.52773,1.67248 m 8.83975,0 -2.10401,4.15296 2.10401,4.13428 v 0.0213 l -2.92223,5.80677 -2.55696,-1.69131 2.07479,-4.13421 -2.07479,-4.13427 2.92224,-5.82545 2.55695,1.67249 m -26.30007,35.911362 v -15.033512 a 2.92223,3.7583896 0 0 1 2.92223,-3.75841 h 23.37784 a 2.92223,3.7583896 0 0 1 2.92223,3.75841 v 15.033512 h -2.92219 v -3.75833 h -23.37783 v 3.75834 h -2.92223 m 5.84445,-15.038622 a 1.4611149,1.8791947 0 0 0 -1.46111,1.87917 v 3.758412 a 1.4611149,1.8791947 0 0 0 1.46111,1.87917 1.4611149,1.8791947 0 0 0 1.46112,-1.87917 v -3.758412 a 1.4611149,1.8791947 0 0 0 -1.46112,-1.87917 m 5.84447,0 a 1.4611149,1.8791947 0 0 0 -1.46112,1.87917 v 3.758412 a 1.4611149,1.8791947 0 0 0 1.46112,1.87917 1.4611149,1.8791947 0 0 0 1.46111,-1.87917 v -3.758412 a 1.4611149,1.8791947 0 0 0 -1.46111,-1.87917 m 5.84445,0 a 1.4611149,1.8791947 0 0 0 -1.46111,1.87917 v 3.758412 a 1.4611149,1.8791947 0 0 0 1.46111,1.87917 1.4611149,1.8791947 0 0 0 1.46112,-1.87917 v -3.758412 a 1.4611149,1.8791947 0 0 0 -1.46112,-1.87917 m 5.84446,0 a 1.4611149,1.8791947 0 0 0 -1.46111,1.87917 v 3.758412 a 1.4611149,1.8791947 0 0 0 1.46111,1.87917 1.4611149,1.8791947 0 0 0 1.46112,-1.87917 v -3.758412 a 1.4611149,1.8791947 0 0 0 -1.46112,-1.87917 z"
       inkscape:connector-curvature="0"
       style="stroke-width:1.65702116" />
    <path
       id="path6664-3"
       d="m 137.9571,-182.00922 h 11.34769 a 1.6210979,1.9570767 0 0 1 1.6211,1.95709 v 13.69952 a 1.6210979,1.9570767 0 0 1 -1.6211,1.95708 H 137.9571 a 1.6210979,1.9570767 0 0 1 -1.62109,-1.95708 v -13.69952 a 1.6210979,1.9570767 0 0 1 1.62109,-1.95709 m 8.10549,1.95709 v 13.69952 h 3.2422 v -13.69952 h -3.2422 m -8.10549,0 v 3.91414 h 6.48439 v -3.91414 h -6.48439 m 0,5.87124 v 1.95705 h 1.6211 v -1.95705 h -1.6211 m 2.43165,0 v 1.95705 h 1.6211 v -1.95705 h -1.6211 m 2.43165,0 v 1.95705 h 1.62109 v -1.95705 h -1.62109 m -4.8633,2.93561 v 1.95705 h 1.6211 v -1.95705 h -1.6211 m 2.43165,0 v 1.95705 h 1.6211 v -1.95705 h -1.6211 m 2.43165,0 v 1.95705 h 1.62109 v -1.95705 h -1.62109 m 0,2.93561 v 1.95706 h 1.62109 v -1.95706 h -1.62109 m -2.43165,0 v 1.95706 h 1.6211 v -1.95706 h -1.6211 m -2.43165,0 v 1.95706 h 1.6211 v -1.95706 z"
       inkscape:connector-curvature="0"
       style="stroke-width:0.8905915" />
    <path
       id="path6357-9"
       d="m 18.294048,-182.27275 h 9.67619 l 4.83809,16.3286 h -19.35238 l 4.8381,-16.3286 m 3.62857,17.6893 h 2.41905 v 6.80359 h 6.04762 v 2.7214 h -14.51429 v -2.7214 h 6.04762 z"
       inkscape:connector-curvature="0"
       style="stroke-width:1.28289437" />
    <path
       id="path6775-8-2"
       d="m 72.726082,-167.18385 v 4.41811 h 1.88989 v -2.20903 h 7.55952 v 2.20903 h 1.88988 v -4.41811 h -11.33929 m -0.94494,5.52267 a 2.8348218,3.3135914 0 0 0 -2.83482,3.31359 v 6.62718 h 2.83482 v -3.31359 h 13.22917 v 3.31359 h 2.83482 v -6.62718 a 2.8348218,3.3135914 0 0 0 -2.83482,-3.31359 h -13.22917 m 12.28423,2.20903 a 0.94494056,1.1045304 0 0 1 0.94494,1.10456 0.94494056,1.1045304 0 0 1 -0.94494,1.10452 0.94494056,1.1045304 0 0 1 -0.94494,-1.10452 0.94494056,1.1045304 0 0 1 0.94494,-1.10456 m -10.39435,6.62718 v 5.52267 h 1.88989 v -5.52267 h -1.88989 m 3.77977,0 v 4.41815 h 1.88988 v -4.41815 h -1.88988 m 3.77976,0 v 5.52267 h 1.88988 v -5.52267 z"
       inkscape:connector-curvature="0"
       style="stroke-width:1.02162397" />
    <path
       id="path6697-2-6"
       d="m 151.53065,-155.92888 h 2.19226 v 1.53709 h -2.19226 v -1.53709 m -17.5381,-2.30565 h 17.5381 a 2.1922621,1.5371037 0 0 1 2.19226,1.53708 h -3.28839 v 1.53712 h -15.34583 v 3.0742 h 3.28838 v 2.30566 h 12.05745 v 0.76857 h 3.28839 a 2.1922621,1.5371037 0 0 1 -2.19226,1.53708 h -4.38453 v 0.76857 h -2.19225 v -0.76857 h -3.2884 v 0.76857 h -4.38453 v -0.76857 h -3.28839 a 2.1922621,1.5371037 0 0 1 -2.19226,-1.53708 v -7.68555 a 2.1922621,1.5371037 0 0 1 2.19226,-1.53708 m 16.44197,7.68551 h -10.96131 v -3.84277 h 10.96131 v 0.76857 h 3.28839 v 1.53709 h -3.28839 v 1.53711 m -6.57678,-2.30566 v 1.53712 h 2.19225 v -1.53712 h -2.19225 m -8.76905,-4.61131 v 1.53711 h 1.09613 v -1.53711 h -1.09613 m 2.19225,0 v 1.53711 h 1.09613 v -1.53711 h -1.09613 m 2.19227,0 v 1.53711 h 1.09613 v -1.53711 h -1.09613 m 2.19226,0 v 1.53711 h 1.09613 v -1.53711 h -1.09613 m 2.19227,0 v 1.53711 h 1.09613 v -1.53711 h -1.09613 m 2.19225,0 v 1.53711 h 1.09613 v -1.53711 h -1.09613 m 5.48066,6.14843 h 2.19226 v 1.53709 h -2.19226 z"
       inkscape:connector-curvature="0"
       style="stroke-width:0.91784173"
       inkscape:transform-center-x="5.8460306"
       inkscape:transform-center-y="-10.540139" />
    <path
       id="path6723-3"
       d="m 135.33121,-174.2718 1.14466,-0.83426 c -2.00318,-1.45989 -4.57871,-2.18986 -7.15424,-2.18986 -2.57554,0 -5.15107,0.72997 -7.15426,2.18986 l 1.14468,0.83426 c 1.71702,-1.14708 3.8633,-1.77276 6.00958,-1.77276 2.14627,0 4.29255,0.62568 6.00958,1.77276 m -1.28778,0.83425 c -1.28776,-0.93854 -3.00478,-1.45994 -4.7218,-1.45994 -1.71702,0 -3.43404,0.5214 -4.72182,1.45994 l 1.14469,0.83422 c 1.00159,-0.72994 2.28936,-1.0428 3.57713,-1.0428 1.28777,0 2.57553,0.31294 3.57713,1.0428 l 1.14467,-0.83422 m -0.42922,6.56962 h -2.8617 v -4.17119 h -2.86173 v 4.17119 h -14.30852 a 2.8617006,2.0856018 0 0 0 -2.8617,2.08562 v 4.17119 a 2.8617006,2.0856018 0 0 0 2.8617,2.08562 h 20.03192 a 2.8617006,2.0856018 0 0 0 2.86169,-2.08562 v -4.17119 a 2.8617006,2.0856018 0 0 0 -2.86169,-2.08562 m -15.73936,5.21402 h -2.86171 v -2.08561 h 2.86171 v 2.08561 m 5.00798,0 h -2.86171 v -2.08561 h 2.86171 v 2.08561 m 5.00798,0 h -2.86171 v -2.08561 h 2.86171 z"
       inkscape:connector-curvature="0"
       style="stroke-width:1.22151208" />
    <path
       id="path6472-1"
       d="m 34.604599,-154.05867 c -0.781565,0.99137 -0.692874,2.35625 0.199279,3.06715 l 6.430119,5.12373 c 0.892188,0.71093 2.234198,0.48607 3.015764,-0.5053 l 8.449375,-10.71746 c 0.781574,-0.99137 0.69288,-2.35626 -0.199301,-3.06718 l -6.430123,-5.12374 c -0.892153,-0.71089 -2.234162,-0.48603 -3.015736,0.50534 l -8.449377,10.71746 m 1.607504,1.28091 8.449377,-10.71746 6.430124,5.12373 -8.449383,10.71746 -6.430118,-5.12373 m 7.433186,8.83136 c -0.781574,0.99137 -0.692881,2.35627 0.199308,3.06719 l 2.411291,1.9214 c 0.892153,0.71089 2.234163,0.48603 3.015736,-0.50534 l 11.265832,-14.28994 c 0.781573,-0.99137 0.692887,-2.35626 -0.199266,-3.06717 l -2.411299,-1.92139 c -0.892181,-0.71093 -2.234198,-0.48606 -3.015771,0.50531 l -11.265831,14.28994 m 4.423988,-2.29154 8.449383,-10.71746 2.411292,1.9214 -8.449376,10.71746 -2.411299,-1.9214 m 1.306921,-0.41279 1.20566,0.96071 2.816464,-3.57249 -1.205661,-0.96071 -2.816463,3.57249 m 4.224688,-5.35873 1.20566,0.96071 2.816463,-3.57249 -1.205653,-0.96072 z"
       inkscape:connector-curvature="0"
       style="stroke-width:1.08112001" />
    <path
       id="path6494-6"
       d="m 38.25782,-84.783036 0.137886,22.698772 -13.984913,0.08495 -0.137886,-22.698772 m -2.796939,0.01699 0.137886,22.698771 c 0.0085,1.399754 1.259978,2.514523 2.81226,2.505093 l 16.781851,-0.101943 a 2.5221318,2.7970268 89.651955 0 0 2.781678,-2.539074 l -0.05362,-8.827298 4.210783,2.496598 1.398465,-0.0085 -0.06128,-10.088344 -1.398464,0.0085 -4.180142,2.54757 -0.05362,-8.827298 a 2.5221318,2.7970268 89.651955 0 0 -2.812319,-2.505092 l -16.781851,0.101943 c -1.552281,0.0094 -2.790044,1.151929 -2.781618,2.539074 z"
       inkscape:connector-curvature="0"
       style="stroke-width:1.3280127" />
    <path
       id="path6505-4-8"
       d="m 195.82645,-102.241 a 1.3679903,1.314738 0 0 1 -1.36798,1.31473 h -2.736 a 1.3679903,1.314738 0 0 1 -1.36798,-1.31473 v -1.31472 h -2.736 a 2.7359806,2.6294758 0 0 1 -2.73597,-2.62944 v -7.88843 a 2.7359806,2.6294758 0 0 1 2.73597,-2.62954 h 54.71962 a 2.7359806,2.6294758 0 0 1 2.73597,2.62954 v 7.88843 a 2.7359806,2.6294758 0 0 1 -2.73597,2.62944 h -2.73597 v 1.31472 a 1.3679903,1.314738 0 0 1 -1.36799,1.31473 h -2.73599 a 1.3679903,1.314738 0 0 1 -1.36799,-1.31473 v -1.31472 h -38.30372 v 1.31472 m -5.47196,-9.20314 v 2.62944 h 5.47196 v -2.62944 h -5.47196 m 8.20794,0 v 2.62944 h 5.47196 v -2.62944 h -5.47196 m 39.67172,-1.31473 a 2.7359806,2.6294758 0 0 0 -2.73599,2.62945 2.7359806,2.6294758 0 0 0 2.73599,2.62944 2.7359806,2.6294758 0 0 0 2.73598,-2.62944 2.7359806,2.6294758 0 0 0 -2.73598,-2.62945 z"
       inkscape:connector-curvature="0"
       style="stroke-width:2.68219995" />
    <path
       id="path6505-4-3"
       d="m 258.00777,-118.24772 a 1.1446407,1.314738 0 0 1 -1.14463,1.31473 h -2.2893 a 1.1446407,1.314738 0 0 1 -1.14463,-1.31473 v -1.31472 h -2.2893 a 2.2892814,2.6294758 0 0 1 -2.28927,-2.62944 v -7.88843 a 2.2892814,2.6294758 0 0 1 2.28927,-2.62954 h 45.78564 a 2.2892814,2.6294758 0 0 1 2.28927,2.62954 v 7.88843 a 2.2892814,2.6294758 0 0 1 -2.28927,2.62944 h -2.28928 v 1.31472 a 1.1446407,1.314738 0 0 1 -1.14463,1.31473 h -2.28929 a 1.1446407,1.314738 0 0 1 -1.14465,-1.31473 v -1.31472 h -32.04993 v 1.31472 m -4.57856,-9.20314 v 2.62944 h 4.57856 v -2.62944 h -4.57856 m 6.86784,0 v 2.62944 h 4.57856 v -2.62944 h -4.57856 m 33.19459,-1.31473 a 2.2892814,2.6294758 0 0 0 -2.28929,2.62945 2.2892814,2.6294758 0 0 0 2.28929,2.62944 2.2892814,2.6294758 0 0 0 2.28928,-2.62944 2.2892814,2.6294758 0 0 0 -2.28928,-2.62945 z"
       inkscape:connector-curvature="0"
       style="stroke-width:2.45348954" />
    <path
       id="path6675-2"
       d="m 190.30326,-148.04457 c -0.12855,0 -0.26323,0.0637 -0.37953,0.17944 -0.52033,0.49215 -1.03454,0.9785 -1.54875,1.46485 -0.13468,0.12736 -0.1714,0.19695 -0.30608,0.31265 -0.17753,0.13896 -0.2571,0.30686 -0.25098,0.5211 0.0183,0.74689 0.0183,1.4822 0.0183,2.22912 0,0.77004 0,1.55746 0,2.33332 0,0.0578 0,0.10417 0.0182,0.16216 0.049,0.17944 0.17141,0.22001 0.30609,0.0869 0.73458,-0.69478 1.38958,-1.32589 2.12416,-2.02646 0.83253,-0.78744 1.67118,-1.57485 2.50371,-2.36807 0.25098,-0.23159 0.25098,-0.49215 0,-0.72374 -0.70397,-0.66584 -1.4202,-1.3201 -2.11805,-1.99173 -0.12244,-0.11577 -0.23874,-0.17945 -0.36729,-0.17945 m 4.05857,3.85609 c -0.12854,0 -0.25098,0.0521 -0.36729,0.16215 -0.70397,0.67164 -1.41407,1.33167 -2.12417,2.00911 -0.23874,0.22579 -0.23874,0.47475 0,0.70636 0.70397,0.66584 1.40183,1.33745 2.1058,2.00331 0.24487,0.23737 0.50197,0.23737 0.74683,0 0.67949,-0.6311 1.37734,-1.28537 2.04459,-1.93383 0.10407,-0.0985 0.20814,-0.19104 0.25098,-0.32424 v -0.17944 c -0.0429,-0.13896 -0.14692,-0.22001 -0.25098,-0.33002 -0.68561,-0.64848 -1.35898,-1.30274 -2.04459,-1.95121 -0.1163,-0.11007 -0.23874,-0.16215 -0.36117,-0.16215 m -8.49668,0.24897 c -0.0796,-0.0289 -0.12244,0.0289 -0.1714,0.0753 -0.70397,0.67744 -1.32224,1.27957 -2.02622,1.95121 -0.15916,0.15624 -0.15916,0.37634 0,0.52688 0.37953,0.36477 0.76519,0.72374 1.14472,1.08851 0.33057,0.31264 0.57542,0.55003 0.91823,0.86847 0.0979,0.0869 0.18366,0.0694 0.23262,-0.0405 0.0367,-0.058 0.0367,-0.13304 0.0367,-0.19694 0,-0.68319 0,-1.21587 0,-1.89908 0,-0.68899 0,-1.378 0,-2.06121 0,-0.0464 0,-0.10417 -0.0183,-0.14465 -0.0123,-0.0753 -0.0429,-0.13896 -0.1163,-0.16784 m 4.47484,3.56657 c -0.12244,0 -0.26323,0.0521 -0.37954,0.16215 -0.70398,0.67161 -1.40183,1.35482 -2.10581,2.02646 -0.24486,0.23159 -0.24486,0.47478 0,0.70637 0.67949,0.64846 1.36511,1.28534 2.05072,1.93383 0.0979,0.0985 0.202,0.19694 0.3428,0.23738 h 0.1714 c 0.13467,-0.0348 0.24486,-0.12167 0.3428,-0.21423 0.68561,-0.65426 1.37735,-1.30272 2.06908,-1.95698 0.23874,-0.23159 0.20814,-0.49215 -0.0183,-0.72374 -0.7101,-0.67164 -1.40183,-1.33748 -2.1058,-2.00909 -0.11631,-0.11007 -0.23874,-0.16215 -0.3673,-0.16215 z"
       inkscape:connector-curvature="0"
       style="stroke-width:0.59534037" />
    <path
       id="path6575-3"
       d="m 263.85912,-46.239009 h -15.7238 a 1.9654761,2.2300569 0 0 0 -1.96548,2.23007 v 13.38034 a 1.9654761,2.2300569 0 0 0 1.96548,2.23007 h 15.7238 a 1.9654761,2.2300569 0 0 0 1.96548,-2.23007 v -13.38034 a 1.9654761,2.2300569 0 0 0 -1.96548,-2.23007 m -12.02871,13.64794 -1.38566,1.57223 c -1.5429,-1.72832 -2.30943,-4.01411 -2.30943,-6.29993 0,-2.28583 0.76653,-4.57161 2.2996,-6.31106 l 1.38566,1.57218 c -1.13997,1.31574 -1.71979,3.02173 -1.71979,4.73888 0,1.71715 0.57982,3.42313 1.72962,4.7277 m 4.16681,-0.2676 a 3.9309522,4.4601135 0 0 1 -3.93095,-4.4601 3.9309522,4.4601135 0 0 1 3.93095,-4.4601 3.9309522,4.4601135 0 0 1 3.93095,4.4601 3.9309522,4.4601135 0 0 1 -3.93095,4.4601 m 5.5623,1.85095 -1.38566,-1.57218 c 1.13997,-1.31574 1.71979,-3.02172 1.71979,-4.73887 0,-1.71715 -0.57982,-3.42314 -1.72962,-4.72771 l 1.38566,-1.57222 c 1.5429,1.72832 2.30943,4.0141 2.30943,6.29993 0,2.28582 -0.76653,4.57161 -2.2996,6.31105 m -5.5623,-8.54112 a 1.9654761,2.2300569 0 0 0 -1.96548,2.23007 1.9654761,2.2300569 0 0 0 1.96548,2.23007 1.9654761,2.2300569 0 0 0 1.96547,-2.23007 1.9654761,2.2300569 0 0 0 -1.96547,-2.23007 z"
       inkscape:connector-curvature="0"
       style="stroke-width:1.04679549" />
    <path
       id="path6461-11"
       d="m 216.46493,-20.763431 h 8.87149 v -17.728232 h 5.91431 v 17.728232 h 8.87149 l 11.82864,28.365158 h -47.31455 l 11.82862,-28.365158 m 17.74297,31.910762 a 5.914319,7.0912775 0 0 1 -5.91433,7.091322 5.914319,7.0912775 0 0 1 -5.9143,-7.091322 z"
       inkscape:connector-curvature="0"
       style="stroke-width:3.23805785" />
    <flowRoot
       xml:space="preserve"
       id="flowRoot6230-8"
       style="font-style:normal;font-weight:normal;font-size:40px;line-height:1.25;font-family:sans-serif;letter-spacing:0px;word-spacing:0px;fill:#000000;fill-opacity:1;stroke:none"
       transform="matrix(0.26458333,0,0,0.26458333,-58.669362,-225.75661)"><flowRegion
         id="flowRegion6232-8"><rect
           id="rect6234-5"
           width="377.14285"
           height="77.14286"
           x="1000"
           y="979.88751" /></flowRegion><flowPara
         id="flowPara6236-7">Studio</flowPara></flowRoot>    <flowRoot
       xml:space="preserve"
       id="flowRoot6238-8"
       style="font-style:normal;font-weight:normal;font-size:40px;line-height:1.25;font-family:sans-serif;letter-spacing:0px;word-spacing:0px;fill:#000000;fill-opacity:1;stroke:none"
       transform="matrix(0.26458333,0,0,0.26458333,-0.5408311,-150.16166)"><flowRegion
         id="flowRegion6240-3"><rect
           id="rect6242-0"
           width="342.85715"
           height="60"
           x="242.85715"
           y="1431.316" /></flowRegion><flowPara
         id="flowPara6244-9">Bedroom</flowPara></flowRoot>    <path
       id="path6786-8"
       d="m 140.00237,-132.65814 a 6.1232139,5.619246 0 0 0 6.12321,-5.61924 c 0,-3.10933 -2.74523,-5.61925 -6.12321,-5.61925 -3.38818,0 -6.12321,2.50992 -6.12321,5.61925 a 6.1232139,5.619246 0 0 0 6.12321,5.61924 m 7.14375,-14.04811 a 2.0410713,1.873082 0 0 1 2.04108,1.87309 v 13.11155 a 2.0410713,1.873082 0 0 1 -2.04108,1.8731 h -14.28749 c -1.1328,0 -2.04108,-0.84291 -2.04108,-1.8731 v -13.11155 c 0,-1.03957 0.90828,-1.87309 2.04108,-1.87309 h 14.28749 m -11.2259,8.42887 a 4.0821426,3.746164 0 0 1 4.08215,-3.74615 4.0821426,3.746164 0 0 1 4.08214,3.74615 4.0821426,3.746164 0 0 1 -4.08214,3.74615 4.0821426,3.746164 0 0 1 -4.08215,-3.74615 z"
       inkscape:connector-curvature="0"
       style="stroke-width:0.97763664" />
  </g>
</svg>
