<?xml version="1.0" encoding="UTF-8" standalone="no"?>
<!-- Created with Inkscape (http://www.inkscape.org/) -->

<svg
   xmlns:osb="http://www.openswatchbook.org/uri/2009/osb"
   xmlns:dc="http://purl.org/dc/elements/1.1/"
   xmlns:cc="http://creativecommons.org/ns#"
   xmlns:rdf="http://www.w3.org/1999/02/22-rdf-syntax-ns#"
   xmlns:svg="http://www.w3.org/2000/svg"
   xmlns="http://www.w3.org/2000/svg"
   xmlns:xlink="http://www.w3.org/1999/xlink"
   xmlns:sodipodi="http://sodipodi.sourceforge.net/DTD/sodipodi-0.dtd"
   xmlns:inkscape="http://www.inkscape.org/namespaces/inkscape"
   width="800mm"
   height="480mm"
   viewBox="0 0 800 480"
   version="1.1"
   id="svg8"
   inkscape:version="0.92.3 (2405546, 2018-03-11)"
   sodipodi:docname="floorplan.svg">
  <defs
     id="defs2">
    <linearGradient
       id="linearGradient4530"
       osb:paint="solid">
      <stop
         style="stop-color:#000000;stop-opacity:1;"
         offset="0"
         id="stop4528" />
    </linearGradient>
    <linearGradient
       gradientTransform="matrix(0.9152783,0,0,0.99989033,67.749046,-0.00871401)"
       inkscape:collect="always"
       xlink:href="#linearGradient4530"
       id="linearGradient4532"
       x1="473.98215"
       y1="-79.464279"
       x2="799.79767"
       y2="-79.464279"
       gradientUnits="userSpaceOnUse" />
  </defs>
  <sodipodi:namedview
     id="base"
     pagecolor="#ffffff"
     bordercolor="#666666"
     borderopacity="1.0"
     inkscape:pageopacity="0.0"
     inkscape:pageshadow="2"
     inkscape:zoom="0.35"
     inkscape:cx="1516.0727"
     inkscape:cy="993.81588"
     inkscape:document-units="px"
     inkscape:current-layer="layer1"
     showgrid="false"
     inkscape:window-width="1600"
     inkscape:window-height="918"
     inkscape:window-x="102"
     inkscape:window-y="21"
     inkscape:window-maximized="0" />
  <metadata
     id="metadata5">
    <rdf:RDF>
      <cc:Work
         rdf:about="">
        <dc:format>image/svg+xml</dc:format>
        <dc:type
           rdf:resource="http://purl.org/dc/dcmitype/StillImage" />
        <dc:title></dc:title>
      </cc:Work>
    </rdf:RDF>
  </metadata>
  <g
     inkscape:label="Layer 1"
     inkscape:groupmode="layer"
     id="layer1"
     transform="translate(0,182.99999)">
    <rect
       style="fill:#ffffff;stroke-width:0.26458332"
       id="rect4526"
       width="325.81549"
       height="204.10715"
       x="473.98215"
       y="-181.51785" />
    <rect
       style="fill:#000000;stroke-width:0;stroke-miterlimit:4;stroke-dasharray:none"
       id="rect4680"
       width="3.7797623"
       height="479.2738"
       x="79.121422"
       y="-182.19377" />
    <rect
       style="fill:#999999;stroke:#000000;stroke-width:0.45780846;stroke-miterlimit:4;stroke-dasharray:none;stroke-opacity:1"
       id="rect6300"
       width="32.842533"
       height="99.822311"
       x="461.53198"
       y="196.51703" />
    <path
       id="path6686"
       d="m 470.12966,271.99453 1.62043,1.43509 c 3.58567,-3.18574 9.41239,-3.18574 13.00955,0 l 1.62044,-1.43509 c -4.48207,-3.9898 -11.75685,-3.9898 -16.25042,0 m 3.25238,2.88039 1.62045,1.43509 c 1.79283,-1.58777 4.70044,-1.58777 6.50476,0 l 1.62045,-1.43509 c -2.68926,-2.38168 -7.05641,-2.38168 -9.74566,0 m 12.9176,7.37909 a 1.1492527,1.0178047 0 0 1 -1.14925,-1.01783 1.1492527,1.0178047 0 0 1 1.14925,-1.0178 1.1492527,1.0178047 0 0 1 1.14925,1.0178 1.1492527,1.0178047 0 0 1 -1.14925,1.01783 m -3.44776,6.10683 h -9.19402 v -5.08905 h 9.19402 v 5.08905 m 3.44776,-10.17808 h -16.08953 a 3.447758,3.0534143 0 0 0 -3.44777,3.05342 v 5.08903 h 4.59702 v 4.07121 h 13.79103 v -4.07121 h 4.59701 v -5.08903 a 3.447758,3.0534143 0 0 0 -3.44776,-3.05342 z"
       inkscape:connector-curvature="0"
       style="stroke-width:1.08153355" />
    <rect
       style="fill:#666666;stroke:#000000;stroke-width:0.53014928;stroke-miterlimit:4;stroke-dasharray:none;stroke-opacity:1"
       id="rect6876"
       width="47.625008"
       height="204.10713"
       x="453.94962"
       y="-181.52902" />
    <rect
       style="fill:#666666;stroke:#000000;stroke-width:0.52527285;stroke-miterlimit:4;stroke-dasharray:none;stroke-opacity:1"
       id="rect6880"
       width="49.140739"
       height="28.730816"
       x="453.57147"
       y="-182.27843" />
    <rect
       style="fill:#000080;stroke:#000000;stroke-width:0.44632551;stroke-miterlimit:4;stroke-dasharray:none;stroke-opacity:1"
       id="rect6882"
       width="20.099136"
       height="29.657026"
       x="212.93497"
       y="231.3765" />
    <rect
       style="fill:#806600;stroke:#000000;stroke-width:0;stroke-miterlimit:4;stroke-dasharray:none;stroke-opacity:1"
       id="rect6886"
       width="335.32724"
       height="382.50073"
       x="104.67762"
       y="-182.26874" />
    <rect
       style="fill:#666666;stroke:#000000;stroke-width:0.38707876;stroke-miterlimit:4;stroke-dasharray:none;stroke-opacity:1"
       id="rect6878-4"
       width="55.940475"
       height="28.718832"
       x="397.63101"
       y="153.54761"
       transform="scale(1,-1)" />
    <path
       id="path6357-8-6"
       d="m 429.83453,-183.02975 h 9.67619 l 4.83809,16.3286 h -19.35237 l 4.83809,-16.3286 m 3.62858,17.6893 h 2.41903 v 6.80359 h 6.04762 v 2.7214 h -14.51427 v -2.7214 h 6.04762 z"
       inkscape:connector-curvature="0"
       style="fill:#ffff00;stroke-width:1.28289437" />
    <path
       id="path6483-5"
       d="m 356.80953,-134.34643 h -27.21429 a 3.4017861,2.0410714 0 0 0 -3.40179,2.04109 v 6.1232 a 3.4017861,2.0410714 0 0 0 3.40179,2.04109 h 1.70089 v 1.02053 c 0,0.61232 0.68036,1.02052 1.70088,1.02052 h 3.4018 c 1.02053,0 1.70089,-0.4082 1.70089,-1.02052 v -1.02053 h 10.20535 v 1.02053 c 0,0.61232 0.68036,1.02052 1.70089,1.02052 h 3.4018 c 1.02052,0 1.70089,-0.4082 1.70089,-1.02052 v -1.02053 h 1.7009 a 3.4017861,2.0410714 0 0 0 3.40177,-2.04109 v -6.1232 a 3.4017861,2.0410714 0 0 0 -3.40177,-2.04109 m -10.20537,5.10269 h -17.00892 v -2.04108 h 17.00892 v 2.04108 m 6.80358,1.02052 a 3.4017861,2.0410714 0 0 1 -3.4018,-2.04104 3.4017861,2.0410714 0 0 1 3.4018,-2.04108 3.4017861,2.0410714 0 0 1 3.40179,2.04108 3.4017861,2.0410714 0 0 1 -3.40179,2.04104 m -20.41073,2.04108 h -3.40177 v -1.02052 h 3.40177 v 1.02052 m 6.80358,0 h -3.40178 v -1.02052 h 3.40178 v 1.02052 m 6.80357,0 h -3.40178 v -1.02052 h 3.40178 z"
       inkscape:connector-curvature="0"
       style="stroke-width:1.31750596" />
    <rect
       style="fill:#c87137;stroke:#000000;stroke-width:0.69033903;stroke-miterlimit:4;stroke-dasharray:none;stroke-opacity:1"
       id="rect7099"
       width="133.80357"
       height="33.260853"
       x="111.58968"
       y="-182.90236" />
    <path
       id="path6346-6"
       d="m 252.03452,-178.30506 h 1.73869 v 3.59078 h -1.73869 v -3.59078 m -3.28613,-3.59076 h 13.52701 c 1.06061,0 1.92995,0.71814 1.92995,1.59429 v 11.1745 a 1.9299466,1.5943047 0 0 1 -1.92995,1.59429 h -13.52701 c -1.0606,0 -1.92994,-0.71814 -1.92994,-1.59429 v -11.1745 a 1.9299466,1.5943047 0 0 1 1.92994,-1.59429 m 6.76351,1.43629 a 6.9547629,5.7452421 0 0 0 -6.95476,5.74525 6.9547629,5.7452421 0 0 0 6.95476,5.74525 6.9547629,5.7452421 0 0 0 6.95476,-5.74525 6.9547629,5.7452421 0 0 0 -6.95476,-5.74525 m 1.73869,2.51354 h 1.73869 v 2.87264 h -1.73869 v -2.87264 m -3.04271,6.28388 a 1.304018,1.0772329 0 0 1 1.30402,-1.07725 1.304018,1.0772329 0 0 1 1.30402,1.07725 v 0.53861 h -2.60804 z"
       inkscape:connector-curvature="0"
       style="fill:#000000;stroke-width:0.7901423" />
    <path
       id="path6538-1"
       d="m 231.3129,-143.5082 -1.43071,1.79785 1.43071,1.81426 h -0.01 l -2.00501,2.54486 -1.74305,-0.73881 1.43071,-1.81427 -1.43071,-1.80604 2.01509,-2.54489 1.74305,0.74704 m 6.04526,-0.0903 -1.43071,1.81423 1.43071,1.80607 -0.01,0.009 -2.00501,2.53671 -1.74306,-0.73886 1.43072,-1.80604 -1.43072,-1.80607 2.01509,-2.54486 1.74305,0.73063 m 6.09564,0 -1.45086,1.81423 1.45086,1.80607 v 0.009 l -2.01508,2.53671 -1.76321,-0.73886 1.43072,-1.80604 -1.43072,-1.80607 2.01509,-2.54486 1.7632,0.73063 m -18.13578,15.688 v -6.56745 a 2.0150871,1.6418646 0 0 1 2.01509,-1.64187 h 16.12069 a 2.0150871,1.6418646 0 0 1 2.01509,1.64187 v 6.56745 h -2.01506 v -1.64184 h -16.12069 v 1.64184 h -2.01509 m 4.03017,-6.56967 a 1.0075435,0.82093227 0 0 0 -1.00754,0.82092 v 1.64187 a 1.0075435,0.82093227 0 0 0 1.00754,0.82092 1.0075435,0.82093227 0 0 0 1.00755,-0.82092 v -1.64187 a 1.0075435,0.82093227 0 0 0 -1.00755,-0.82092 m 4.03018,0 a 1.0075435,0.82093227 0 0 0 -1.00754,0.82092 v 1.64187 a 1.0075435,0.82093227 0 0 0 1.00754,0.82092 1.0075435,0.82093227 0 0 0 1.00754,-0.82092 v -1.64187 a 1.0075435,0.82093227 0 0 0 -1.00754,-0.82092 m 4.03017,0 a 1.0075435,0.82093227 0 0 0 -1.00754,0.82092 v 1.64187 a 1.0075435,0.82093227 0 0 0 1.00754,0.82092 1.0075435,0.82093227 0 0 0 1.00755,-0.82092 v -1.64187 a 1.0075435,0.82093227 0 0 0 -1.00755,-0.82092 m 4.03017,0 a 1.0075435,0.82093227 0 0 0 -1.00754,0.82092 v 1.64187 a 1.0075435,0.82093227 0 0 0 1.00754,0.82092 1.0075435,0.82093227 0 0 0 1.00755,-0.82092 v -1.64187 a 1.0075435,0.82093227 0 0 0 -1.00755,-0.82092 z"
       inkscape:connector-curvature="0"
       style="fill:#ff2a2a;stroke-width:0.90946406"
       inkscape:transform-center-x="14.363095"
       inkscape:transform-center-y="9.8273837" />
    <path
       id="path6505-4-3"
       d="m 330.57919,-136.89454 a 0.76666443,1.0627539 0 0 1 -0.76665,1.06274 h -1.53334 a 0.76666443,1.0627539 0 0 1 -0.76666,-1.06274 v -1.06274 h -1.53334 a 1.5333289,2.1255076 0 0 1 -1.53332,-2.12548 v -6.37653 a 1.5333289,2.1255076 0 0 1 1.53332,-2.12556 h 30.66658 a 1.5333289,2.1255076 0 0 1 1.53332,2.12556 v 6.37653 a 1.5333289,2.1255076 0 0 1 -1.53332,2.12548 h -1.53333 v 1.06274 a 0.76666443,1.0627539 0 0 1 -0.76665,1.06274 h -1.53334 a 0.76666443,1.0627539 0 0 1 -0.76667,-1.06274 v -1.06274 h -21.4666 v 1.06274 m -3.06665,-7.43926 v 2.12548 h 3.06665 v -2.12548 h -3.06665 m 4.59998,0 v 2.12548 h 3.06666 v -2.12548 h -3.06666 m 22.23328,-1.06275 a 1.5333289,2.1255076 0 0 0 -1.53334,2.12549 1.5333289,2.1255076 0 0 0 1.53334,2.12548 1.5333289,2.1255076 0 0 0 1.53333,-2.12548 1.5333289,2.1255076 0 0 0 -1.53333,-2.12549 z"
       inkscape:connector-curvature="0"
       style="stroke-width:1.80529845" />
    <path
       id="path6575-3"
       d="m 294.49032,-30.996679 h -9.67618 a 1.2095237,1.5685995 0 0 0 -1.20953,1.568609 v 9.411596 a 1.2095237,1.5685995 0 0 0 1.20953,1.568609 h 9.67618 a 1.2095237,1.5685995 0 0 0 1.20953,-1.568609 v -9.411596 a 1.2095237,1.5685995 0 0 0 -1.20953,-1.568609 m -7.40228,9.599823 -0.85272,1.105891 c -0.94947,-1.215683 -1.42118,-2.823484 -1.42118,-4.431307 0,-1.60783 0.47171,-3.215624 1.41513,-4.439136 l 0.85272,1.105856 c -0.70152,0.925478 -1.05833,2.125454 -1.05833,3.33328 0,1.207826 0.35681,2.407795 1.06438,3.325416 m 2.56419,-0.188227 a 2.4190474,3.1371988 0 0 1 -2.41905,-3.137189 2.4190474,3.1371988 0 0 1 2.41905,-3.137189 2.4190474,3.1371988 0 0 1 2.41904,3.137189 2.4190474,3.1371988 0 0 1 -2.41904,3.137189 m 3.42295,1.30194 -0.85271,-1.105856 c 0.70152,-0.925478 1.05833,-2.125447 1.05833,-3.333273 0,-1.207826 -0.35681,-2.407802 -1.06438,-3.325424 l 0.85271,-1.105883 c 0.94948,1.215683 1.42119,2.823477 1.42119,4.431307 0,1.607823 -0.47171,3.215624 -1.41514,4.439129 m -3.42295,-6.007738 a 1.2095237,1.5685995 0 0 0 -1.20953,1.568609 1.2095237,1.5685995 0 0 0 1.20953,1.568609 1.2095237,1.5685995 0 0 0 1.20952,-1.568609 1.2095237,1.5685995 0 0 0 -1.20952,-1.568609 z"
       inkscape:connector-curvature="0"
       style="fill:#ff00ff;stroke-width:0.68870497" />
    <path
       id="path6461-11"
       d="m 255.77446,-24.826679 h 5.4697 v -10.641175 h 3.64646 v 10.641175 h 5.4697 l 7.29292,17.0258721 h -29.17169 l 7.29291,-17.0258721 m 10.93939,19.1540813 a 3.6464618,4.2564609 0 0 1 -3.64646,4.2564876 3.6464618,4.2564609 0 0 1 -3.64645,-4.2564876 z"
       inkscape:connector-curvature="0"
       style="fill:#ffff00;stroke-width:1.96983635" />
    <flowRoot
       xml:space="preserve"
       id="flowRoot6230-8"
       style="font-style:normal;font-weight:normal;font-size:40px;line-height:1.25;font-family:sans-serif;letter-spacing:0px;word-spacing:0px;fill:#000000;fill-opacity:1;stroke:none"
       transform="matrix(0.26458333,0,0,0.26458333,-17.847935,-221.97684)"><flowRegion
         id="flowRegion6232-8"><rect
           id="rect6234-5"
           width="377.14285"
           height="77.14286"
           x="1000"
           y="979.88751" /></flowRegion><flowPara
         id="flowPara6236-7">Studio</flowPara></flowRoot>    <flowRoot
       xml:space="preserve"
       id="flowRoot6238-8"
       style="font-style:normal;font-weight:normal;font-size:40px;line-height:1.25;font-family:sans-serif;letter-spacing:0px;word-spacing:0px;fill:#000000;fill-opacity:1;stroke:none"
       transform="matrix(0.26458333,0,0,0.26458333,72.030594,-212.90571)"><flowRegion
         id="flowRegion6240-3"><rect
           id="rect6242-0"
           width="342.85715"
           height="60"
           x="242.85715"
           y="1431.316" /></flowRegion><flowPara
         id="flowPara6244-9">Bedroom</flowPara></flowRoot>    <path
       id="path7452-7"
       d="m 454.32736,-183.02975 c -0.31598,-0.0277 -0.64862,0.0551 -0.95627,0.23842 l -7.19287,4.58442 c -0.79828,0.51347 -1.06439,1.65039 -0.60701,2.51226 l 1.2473,2.37473 c 0.45735,0.88935 1.47182,1.18277 2.27011,0.67848 l 1.49678,-0.95357 c 0.22439,0.42178 0.55713,0.76104 0.9646,0.95357 v 1.62288 c 0,0.99941 0.74007,1.79711 1.6631,1.79711 h 4.31569 v -1.79711 h -4.31569 v -1.62288 c 0.7567,-0.36674 1.2473,-1.19195 1.2473,-2.08131 0,-0.42177 -0.0996,-0.81602 -0.28286,-1.16443 l 2.10382,-1.33868 c 0.80658,-0.51343 1.08101,-1.62287 0.61534,-2.51223 l -1.2473,-2.37475 c -0.28286,-0.55013 -0.78999,-0.86184 -1.32217,-0.91687 m -9.92032,7.54593 -3.50911,0.64183 0.62363,1.19195 1.6631,3.17242 0.62367,1.19195 2.26181,-3.02573 z"
       inkscape:connector-curvature="0"
       style="fill:#ff0000;stroke-width:0.87317115" />
    <rect
       style="fill:#cccccc;stroke:#000000;stroke-width:0.50218987;stroke-miterlimit:4;stroke-dasharray:none;stroke-opacity:1;paint-order:markers stroke fill"
       id="rect7520"
       width="80.277336"
       height="479.27377"
       x="-1.155915"
       y="-182.19377"
       ry="7.196496" />
    <rect
       style="fill:#666666;stroke:#000000;stroke-width:0.52916664;stroke-miterlimit:4;stroke-dasharray:none;stroke-opacity:1;paint-order:markers stroke fill"
       id="rect7644"
       width="104.32143"
       height="30.238094"
       x="266.09525"
       y="-181.51785"
       ry="7.2389202" />
    <path
       id="path6516-3-0"
       d="m 350.38899,-159.45285 v -14.23367 h -60.25325 v 14.23367 h 60.25325 m 0,-16.60596 a 6.6948018,2.3722803 0 0 1 6.6948,2.37229 v 14.23367 a 6.6948018,2.3722803 0 0 1 -6.6948,2.37225 h -16.73701 v 2.3723 h -26.77923 v -2.3723 h -16.73701 a 6.6948018,2.3722803 0 0 1 -6.69479,-2.37225 v -14.23367 a 6.6948018,2.3722803 0 0 1 6.69479,-2.37229 h 60.25325 m -53.55843,4.74454 h 20.08439 v 4.74459 h -20.08439 v -4.74459 m 0,7.11684 h 20.08439 v 2.3723 h -20.08439 v -2.3723 m 26.77919,-7.11684 h 20.08441 v 2.37229 h -20.08441 v -2.37229 m 0,4.74459 h 20.08441 v 4.74455 h -20.08441 z"
       inkscape:connector-curvature="0"
       style="fill:#ffffff;stroke-width:1.99260783" />
    <path
       id="path6383-10-0"
       d="m 280.98988,-173.74414 66.52534,0.3064 -0.34756,-0.66879 7.79667,0.0348 -0.63086,-1.31863 -7.82662,-0.0396 -0.63083,-1.31862 7.82209,0.0302 -0.63087,-1.31862 -7.79682,-0.0348 -0.29201,-0.66854 -66.51625,-0.2877 2.52787,5.28388 m 7.19126,-1.28837 -1.2617,-2.63726 50.84218,0.22237 1.26622,2.64662 -50.8467,-0.23173 m 3.58294,-0.64191 7.82656,0.0396 -0.63536,-1.32799 -7.82207,-0.0302 0.63087,1.31863 m 11.75263,0.0572 7.82212,0.0302 -0.6309,-1.31862 -7.8266,-0.0396 0.63538,1.328 m 11.72262,0.0524 7.82219,0.0302 -0.63094,-1.31865 -7.82654,-0.0396 0.63529,1.32797 m 11.72275,0.0524 7.82208,0.0302 -0.63087,-1.31863 -7.82659,-0.0396 z"
       inkscape:connector-curvature="0"
       style="fill:#ffff00;stroke-width:1.60627103" />
    <path
       id="path6505-4-3-9-9"
       d="m 269.40256,-147.43114 a 0.44934214,0.93575259 0 0 1 -0.44933,0.93575 h -0.89869 a 0.44934214,0.93575259 0 0 1 -0.44934,-0.93575 v -0.93574 h -0.8987 a 0.89868428,1.8715049 0 0 1 -0.89867,-1.87148 v -5.61452 a 0.89868428,1.8715049 0 0 1 0.89867,-1.87155 h 17.9737 a 0.89868428,1.8715049 0 0 1 0.89867,1.87155 v 5.61452 a 0.89868428,1.8715049 0 0 1 -0.89867,1.87148 h -0.89869 v 0.93574 a 0.44934214,0.93575259 0 0 1 -0.44934,0.93575 h -0.89868 a 0.44934214,0.93575259 0 0 1 -0.44935,-0.93575 v -0.93574 h -12.58158 v 0.93574 m -1.79736,-6.55025 v 1.87148 h 1.79736 v -1.87148 h -1.79736 m 2.69605,0 v 1.87148 h 1.79736 v -1.87148 h -1.79736 m 13.03092,-0.93575 a 0.89868428,1.8715049 0 0 0 -0.89868,1.87149 0.89868428,1.8715049 0 0 0 0.89868,1.87148 0.89868428,1.8715049 0 0 0 0.89869,-1.87148 0.89868428,1.8715049 0 0 0 -0.89869,-1.87149 z"
       inkscape:connector-curvature="0"
       style="stroke-width:1.29687786" />
    <rect
       style="fill:#ececec;stroke:#000000;stroke-width:0.3580724;stroke-miterlimit:4;stroke-dasharray:none;stroke-opacity:1;paint-order:markers stroke fill"
       id="rect7706"
       width="34.123253"
       height="24.246948"
       x="193.41843"
       y="-181.57433" />
    <path
       id="path6505-4-3-3"
       d="m 290.13574,-136.13858 a 0.76666444,1.0627539 0 0 1 -0.76665,1.06274 h -1.53334 a 0.76666444,1.0627539 0 0 1 -0.76666,-1.06274 v -1.06274 h -1.53334 a 1.5333289,2.1255076 0 0 1 -1.53332,-2.12548 v -6.37653 a 1.5333289,2.1255076 0 0 1 1.53332,-2.12556 h 30.66658 a 1.5333289,2.1255076 0 0 1 1.53332,2.12556 v 6.37653 a 1.5333289,2.1255076 0 0 1 -1.53332,2.12548 H 314.669 v 1.06274 a 0.76666444,1.0627539 0 0 1 -0.76665,1.06274 h -1.53334 a 0.76666444,1.0627539 0 0 1 -0.76667,-1.06274 v -1.06274 h -21.4666 v 1.06274 m -3.06665,-7.43926 v 2.12548 h 3.06665 v -2.12548 h -3.06665 m 4.59998,0 v 2.12548 h 3.06666 v -2.12548 h -3.06666 m 22.23328,-1.06275 a 1.5333289,2.1255076 0 0 0 -1.53334,2.12549 1.5333289,2.1255076 0 0 0 1.53334,2.12548 1.5333289,2.1255076 0 0 0 1.53333,-2.12548 1.5333289,2.1255076 0 0 0 -1.53333,-2.12549 z"
       inkscape:connector-curvature="0"
       style="stroke-width:1.80529845" />
    <path
       id="path6505-4-3-6"
       d="m 290.13574,-122.53145 a 0.76666444,1.0627539 0 0 1 -0.76665,1.06274 h -1.53334 a 0.76666444,1.0627539 0 0 1 -0.76666,-1.06274 v -1.06274 h -1.53334 a 1.5333289,2.1255076 0 0 1 -1.53332,-2.12548 v -6.37653 a 1.5333289,2.1255076 0 0 1 1.53332,-2.12556 h 30.66658 a 1.5333289,2.1255076 0 0 1 1.53333,2.12556 v 6.37653 a 1.5333289,2.1255076 0 0 1 -1.53333,2.12548 h -1.53332 v 1.06274 a 0.76666444,1.0627539 0 0 1 -0.76666,1.06274 h -1.53334 a 0.76666444,1.0627539 0 0 1 -0.76667,-1.06274 v -1.06274 h -21.4666 v 1.06274 m -3.06665,-7.43926 v 2.12548 h 3.06665 v -2.12548 h -3.06665 m 4.59998,0 v 2.12548 h 3.06666 v -2.12548 h -3.06666 m 22.23328,-1.06275 a 1.5333289,2.1255076 0 0 0 -1.53334,2.12549 1.5333289,2.1255076 0 0 0 1.53334,2.12548 1.5333289,2.1255076 0 0 0 1.53334,-2.12548 1.5333289,2.1255076 0 0 0 -1.53334,-2.12549 z"
       inkscape:connector-curvature="0"
       style="stroke-width:1.80529845" />
    <path
       id="path6697-2-6-9"
       d="m 242.75207,-152.92663 0.0254,1.58729 -1.53689,0.0246 -0.0254,-1.5873 1.53689,-0.0246 m 2.10233,-12.73524 0.20303,12.69838 a 1.5875002,1.5371037 89.083995 0 1 -1.51151,1.61187 l -0.0381,-2.38095 -1.53692,0.0246 -0.17765,-11.11108 -3.07381,0.0491 0.0381,2.38094 -2.30537,0.0369 0.13959,8.73014 -0.76847,0.0123 0.0381,2.38094 a 1.5875002,1.5371037 89.083995 0 1 -1.56226,-1.56272 l -0.0508,-3.1746 -0.76847,0.0123 -0.0254,-1.58729 0.76847,-0.0123 -0.0381,-2.38096 -0.76848,0.0123 -0.0507,-3.1746 0.76847,-0.0123 -0.0381,-2.38095 a 1.5875002,1.5371037 89.083995 0 1 1.51151,-1.61187 l 7.68456,-0.12287 a 1.5875002,1.5371037 89.083995 0 1 1.56227,1.56273 m -7.49419,12.02759 -0.1269,-7.93648 3.84228,-0.0614 0.1269,7.93649 -0.76847,0.0123 0.0381,2.38094 -1.53689,0.0246 -0.0381,-2.38095 -1.53691,0.0246 m 2.22923,-4.79874 -1.53693,0.0246 0.0254,1.58728 1.53693,-0.0246 -0.0254,-1.58729 m 4.5092,-6.42292 -1.53691,0.0246 0.0127,0.79365 1.53691,-0.0246 -0.0127,-0.79365 m 0.0254,1.5873 -1.53691,0.0246 0.0127,0.79364 1.53691,-0.0246 -0.0127,-0.79364 m 0.0254,1.5873 -1.53691,0.0246 0.0127,0.79365 1.53691,-0.0246 -0.0127,-0.79365 m 0.0254,1.5873 -1.53691,0.0246 0.0127,0.79365 1.53691,-0.0246 -0.0127,-0.79364 m 0.0254,1.5873 -1.53692,0.0246 0.0127,0.79364 1.53692,-0.0246 -0.0127,-0.79365 m 0.0254,1.58729 -1.53692,0.0246 0.0127,0.79365 1.53692,-0.0246 -0.0127,-0.79365 m -6.0842,4.06654 0.0254,1.58729 -1.53689,0.0246 -0.0254,-1.5873 z"
       inkscape:connector-curvature="0"
       style="fill:#00ff00;stroke-width:0.78104931"
       inkscape:transform-center-x="-10.490253"
       inkscape:transform-center-y="-4.4074291" />
    <path
       id="path6786-8-1"
       d="m 234.7232,-172.7488 a 4.3593259,3.8553573 0 0 0 4.35933,-3.85535 c 0,-2.13331 -1.95443,-3.85536 -4.35933,-3.85536 -2.41216,0 -4.35932,1.72205 -4.35932,3.85536 a 4.3593259,3.8553573 0 0 0 4.35932,3.85535 m 5.08589,-9.63839 a 1.4531086,1.2851191 0 0 1 1.45311,1.28512 v 8.99582 a 1.4531086,1.2851191 0 0 1 -1.45311,1.28513 h -10.17176 c -0.80648,0 -1.45311,-0.57832 -1.45311,-1.28513 v -8.99582 c 0,-0.71324 0.64663,-1.28512 1.45311,-1.28512 h 10.17176 m -7.99211,5.78304 a 2.9062173,2.5702382 0 0 1 2.90622,-2.57023 2.9062173,2.5702382 0 0 1 2.90622,2.57023 2.9062173,2.5702382 0 0 1 -2.90622,2.57022 2.9062173,2.5702382 0 0 1 -2.90622,-2.57022 z"
       inkscape:connector-curvature="0"
       style="fill:#ffff00;stroke-width:0.68326741" />
    <path
       id="path6664-3-0"
       d="m 216.17566,-181.25327 h 9.05228 a 1.2931829,1.4142106 0 0 1 1.29319,1.41422 v 9.89946 a 1.2931829,1.4142106 0 0 1 -1.29319,1.41422 h -9.05228 a 1.2931829,1.4142106 0 0 1 -1.29318,-1.41422 v -9.89946 a 1.2931829,1.4142106 0 0 1 1.29318,-1.41422 m 6.46591,1.41422 v 9.89946 h 2.58637 v -9.89946 h -2.58637 m -6.46591,0 v 2.82842 h 5.17273 v -2.82842 h -5.17273 m 0,4.24264 v 1.41419 h 1.29318 v -1.41419 h -1.29318 m 1.93978,0 v 1.41419 h 1.29318 v -1.41419 h -1.29318 m 1.93977,0 v 1.41419 h 1.29318 v -1.41419 h -1.29318 m -3.87955,2.12131 v 1.41419 h 1.29318 v -1.41419 h -1.29318 m 1.93978,0 v 1.41419 h 1.29318 v -1.41419 h -1.29318 m 1.93977,0 v 1.41419 h 1.29318 v -1.41419 h -1.29318 m 0,2.12132 v 1.41419 h 1.29318 v -1.41419 h -1.29318 m -1.93977,0 v 1.41419 h 1.29318 v -1.41419 h -1.29318 m -1.93978,0 v 1.41419 h 1.29318 v -1.41419 z"
       inkscape:connector-curvature="0"
       style="stroke-width:0.67617178"
       inkscape:transform-center-x="6.6334243"
       inkscape:transform-center-y="9.8327137" />
    <path
       id="path6723-3-0"
       d="m 214.10247,-173.72503 0.98125,-0.83426 c -1.71721,-1.45989 -3.92507,-2.18986 -6.13293,-2.18986 -2.20787,0 -4.41573,0.72997 -6.13295,2.18986 l 0.98127,0.83426 c 1.4719,-1.14708 3.31179,-1.77276 5.15168,-1.77276 1.83988,0 3.67976,0.62568 5.15168,1.77276 m -1.10394,0.83425 c -1.10393,-0.93854 -2.57584,-1.45994 -4.04774,-1.45994 -1.47191,0 -2.94382,0.5214 -4.04776,1.45994 l 0.98128,0.83422 c 0.85861,-0.72994 1.96254,-1.0428 3.06648,-1.0428 1.10393,0 2.20786,0.31294 3.06647,1.0428 l 0.98127,-0.83422 m -0.36795,6.56962 h -2.45318 v -4.17119 h -2.4532 v 4.17119 h -12.26591 a 2.453178,2.0856018 0 0 0 -2.45317,2.08562 v 4.17119 a 2.453178,2.0856018 0 0 0 2.45317,2.08562 h 17.17226 a 2.453178,2.0856018 0 0 0 2.45317,-2.08562 v -4.17119 a 2.453178,2.0856018 0 0 0 -2.45317,-2.08562 m -13.49248,5.21402 h -2.45319 v -2.08561 h 2.45319 v 2.08561 m 4.29306,0 h -2.45318 v -2.08561 h 2.45318 v 2.08561 m 4.29307,0 h -2.45319 v -2.08561 h 2.45319 z"
       inkscape:connector-curvature="0"
       style="fill:#000080;stroke-width:1.13096774"
       inkscape:transform-center-x="20.737161"
       inkscape:transform-center-y="-1.511902" />
    <path
       id="path6786-7"
       d="m 466.42263,13.643856 a 4.6113091,3.8553573 0 0 0 4.61131,-3.85535 c 0,-2.13331 -2.0674,-3.85536 -4.61131,-3.85536 -2.5516,0 -4.61131,1.72205 -4.61131,3.85536 a 4.6113091,3.8553573 0 0 0 4.61131,3.85535 m 5.37986,-9.63839 a 1.537103,1.2851191 0 0 1 1.53711,1.28512 v 8.99582 a 1.537103,1.2851191 0 0 1 -1.53711,1.28513 h -10.75972 c -0.85309,0 -1.5371,-0.57832 -1.5371,-1.28513 v -8.99582 c 0,-0.71324 0.68401,-1.28512 1.5371,-1.28512 h 10.75972 m -8.45407,5.78304 a 3.074206,2.5702382 0 0 1 3.07421,-2.57023 3.074206,2.5702382 0 0 1 3.07421,2.57023 3.074206,2.5702382 0 0 1 -3.07421,2.57022 3.074206,2.5702382 0 0 1 -3.07421,-2.57022 z"
       inkscape:connector-curvature="0"
       style="fill:#000080;stroke-width:0.70273757" />
    <rect
       style="fill:#000080;stroke:#000000;stroke-width:0.44632551;stroke-miterlimit:4;stroke-dasharray:none;stroke-opacity:1"
       id="rect6882-5"
       width="20.099136"
       height="29.657026"
       x="441.99731"
       y="231.65295" />
    <rect
       style="fill:#784421;stroke:#000000;stroke-width:0.39983425;stroke-miterlimit:4;stroke-dasharray:none;stroke-opacity:1;paint-order:markers stroke fill"
       id="rect7907"
       width="40.200459"
       height="197.06857"
       x="-1.2119615"
       y="100.06749" />
    <path
       id="path7452-4-7"
       d="m -2.5380799,308.21444 c 0.5457901,0.0405 1.12035,-0.0806 1.65173996,-0.34872 L 11.537671,301.16031 c 1.378838,-0.75102 1.838478,-2.41394 1.04846,-3.67455 l -2.154416,-3.47339 c -0.7899645,-1.30082 -2.5422245,-1.72998 -3.9210855,-0.99239 l -2.585341,1.39474 c -0.387582,-0.61691 -0.96231,-1.11313 -1.666118,-1.39474 v -2.3737 c 0,-1.46178 -1.27830034,-2.62854 -2.87262024,-2.62854 H -8.0677999 v 2.62854 h 7.45435016 v 2.3737 c -1.30702016,0.53641 -2.15442006,1.74342 -2.15442006,3.04423 0,0.61691 0.17203,1.19354 0.4885701,1.70315 l -3.6338501,1.95802 c -1.3931801,0.75098 -1.8672,2.37369 -1.06286,3.67451 l 2.1544199,3.47343 c 0.48857,0.80464 1.36453,1.26056 2.2837401,1.34106 m 17.1350418,-11.03705 6.061164,-0.93877 -1.077169,-1.7434 -2.872625,-4.64014 -1.077235,-1.7434 -3.906749,4.42558 z"
       inkscape:connector-curvature="0"
       style="stroke-width:1.38787115;fill:#ff0000" />
    <flowRoot
       xml:space="preserve"
       id="flowRoot7924"
       style="font-style:normal;font-weight:normal;font-size:40px;line-height:1.25;font-family:sans-serif;letter-spacing:0px;word-spacing:0px;fill:#000000;fill-opacity:1;stroke:none"
       transform="matrix(0.26458333,0,0,0.26458333,10.583333,-183.75594)"><flowRegion
         id="flowRegion7926"><rect
           id="rect7928"
           width="237.14285"
           height="85.714287"
           x="31.428572"
           y="894.17322" /></flowRegion><flowPara
         id="flowPara7930">Patio </flowPara></flowRoot>    <flowRoot
       xml:space="preserve"
       id="flowRoot7932"
       style="font-style:normal;font-weight:normal;font-size:40px;line-height:1.25;font-family:sans-serif;letter-spacing:0px;word-spacing:0px;fill:#000000;fill-opacity:1;stroke:none"
       transform="matrix(0.26458333,0,0,0.26458333,2.2678575,-99.089275)"><flowRegion
         id="flowRegion7934"><rect
           id="rect7936"
           width="151.42857"
           height="80"
           x="-5.7142859"
           y="888.45892" /></flowRegion><flowPara
         id="flowPara7938">Garden</flowPara></flowRoot>    <path
       id="path7940"
       d="m 10.640245,213.9562 -0.03804,1.89479 c 0.486327,-0.68585 1.037567,-1.30953 1.625224,-1.86292 l -1.58718,-0.0319 m -1.0145454,3.45771 c -4.832433,-0.3318 -8.4614064,-2.23065 -8.4155083,-4.51657 0.04642,-2.312 3.8055323,-4.07121 8.7033893,-4.17286 -0.6257317,-1.31684 -1.0028258,-2.77651 -0.9708887,-4.36709 2.3276641,5.04647 11.2715721,3.48702 11.1625001,8.91933 -0.104709,5.21501 -8.980032,3.35864 -11.5115284,8.46407 0.031762,-1.58189 0.4390032,-3.0345 1.032036,-4.32688 m 0.069805,-3.47668 -1.8895182,-0.0379 -0.048165,2.39891 1.8858546,0.22046 0.051829,-2.58145 m -2.834258,-0.0569 -1.8895086,-0.0379 -0.034031,1.69488 c 0.562483,0.22869 1.1919743,0.41522 1.8786884,0.57682 l 0.044851,-2.23376 m -2.8342484,-0.0569 -1.6061062,-0.0322 c 0.3021194,0.4843 0.8508608,0.93007 1.579928,1.336 l 0.026178,-1.30376 m -1.8720672,-0.90711 1.8895181,0.0379 0.017451,-0.86917 0.94474,0.019 -0.017451,0.86917 1.8895085,0.0379 0.034903,-1.73834 0.9447399,0.019 -0.034903,1.73834 1.88952,0.0379 0.052354,-2.60751 0.9447375,0.019 -0.05235,2.60752 1.889509,0.0379 0.0349,-1.73834 0.944737,0.019 -0.03089,1.53843 c 1.390671,-1.0068 2.867755,-1.61189 4.032777,-1.73632 -1.560474,-0.89215 -4.118832,-1.50872 -7.027979,-1.60191 -4.4980702,-0.0381 -8.3086547,1.45919 -8.3458253,3.31052 z"
       inkscape:connector-curvature="0"
       style="stroke-width:0.90635556;fill:#00ff00"
       inkscape:transform-center-y="15.11905" />
    <path
       id="path7962"
       d="m 17.267955,239.11009 c -1.283421,0.72627 -2.704603,0.64238 -4.115123,0.55912 1.167584,-1.54479 2.334528,-3.07996 3.629252,-3.81523 l 0.615037,-0.28257 -2.418075,-0.14273 c -1.050626,1.38743 -2.117368,2.69661 -3.279016,3.35276 -1.283461,0.72627 -2.7046047,0.64239 -4.1151247,0.55913 1.167585,-1.5448 2.3345293,-3.07998 3.6292127,-3.81524 l 0.636282,-0.28132 -2.4392794,-0.14398 c -1.0506263,1.38743 -2.1173683,2.69661 -3.2790163,3.35276 -1.283461,0.72627 -2.704604,0.64238 -4.115163,0.55912 1.167624,-1.54479 2.334566,-3.07996 3.629251,-3.81523 0.154721,-0.0875 0.319622,-0.16473 0.494548,-0.23172 -0.668437,0.12482 -1.290617,0.19437 -1.927594,0.16645 -1.602096,-0.0847 -3.203625,-0.8172 -4.80517496,-1.54949 1.61383996,-0.57148 3.23829996,-1.14234 4.84038196,-1.05743 0.668792,0.03 1.340496,0.17576 1.997123,0.38843 -0.143183,-0.0858 -0.286769,-0.17152 -0.428791,-0.27654 -1.187004,-0.88176 -2.141152,-2.54213 -3.094698,-4.21213 1.410559,0.0833 2.831702,0.16714 4.008765,1.03865 1.065505,0.78762 1.950218,2.21198 2.8085583,3.71209 l 2.4392804,0.14398 -0.59398,-0.35393 c -1.187005,-0.88175 -2.1411537,-2.54212 -3.0946597,-4.21212 1.4105203,0.0833 2.8316627,0.16714 4.0087257,1.03865 1.065505,0.78761 1.950219,2.21198 2.808559,3.71209 l 2.418074,0.14273 -0.572735,-0.35267 c -1.187044,-0.88176 -2.141192,-2.54214 -3.094699,-4.21214 1.41052,0.0833 2.831702,0.16715 4.008726,1.03865 1.065505,0.78762 1.950217,2.21198 2.808599,3.7121 l 1.909005,0.11268 -0.12819,1.92503 -1.909006,-0.11268 c -1.050666,1.38743 -2.117408,2.6966 -3.279057,3.35276 z"
       inkscape:connector-curvature="0"
       style="stroke-width:1.0123316;fill:#00ff00" />
    <path
       id="path7940-1"
       d="m 9.0536992,253.30596 -0.03804,1.89479 c 0.486326,-0.68585 1.0375658,-1.30953 1.6252228,-1.86292 l -1.5871798,-0.0319 m -1.0145449,3.45771 c -4.8324331,-0.3318 -8.46140636,-2.23065 -8.41550826,-4.51657 0.04642,-2.312 3.80553236,-4.07121 8.70338916,-4.17286 -0.6257316,-1.31684 -1.0028256,-2.77651 -0.9708885,-4.36709 2.3276635,5.04647 11.2715723,3.48702 11.1624993,8.91933 -0.104709,5.21501 -8.9800308,3.35864 -11.5115276,8.46407 0.031762,-1.58189 0.439003,-3.0345 1.0320359,-4.32688 m 0.069805,-3.47668 -1.8895182,-0.0379 -0.048165,2.39891 1.8858545,0.22046 0.051829,-2.58145 m -2.8342582,-0.0569 -1.8895086,-0.0379 -0.034031,1.69488 c 0.562483,0.22869 1.1919744,0.41522 1.8786885,0.57682 l 0.044851,-2.23376 m -2.8342484,-0.0569 -1.60610606,-0.0322 c 0.30211936,0.4843 0.85086076,0.93007 1.57992786,1.336 l 0.026178,-1.30376 m -1.87206726,-0.90711 1.88951816,0.0379 0.017452,-0.86917 0.94474,0.019 -0.017452,0.86917 1.8895084,0.0379 0.034903,-1.73834 0.94474,0.019 -0.034903,1.73834 1.88952,0.0379 0.052354,-2.60751 0.9447382,0.019 -0.05235,2.60752 1.8895078,0.0379 0.0349,-1.73834 0.944737,0.019 -0.03089,1.53843 c 1.390671,-1.0068 2.867755,-1.61189 4.032777,-1.73632 -1.560474,-0.89215 -4.118832,-1.50872 -7.0279778,-1.60191 -4.4980704,-0.0381 -8.30865486,1.45919 -8.34582546,3.31052 z"
       inkscape:connector-curvature="0"
       style="stroke-width:0.90635556;fill:#00ff00" />
    <path
       id="path7951-7"
       d="m 33.098833,279.42278 -0.24491,1.04016 h -2.816285 a 0.61223551,0.52006762 0 0 0 -0.612232,0.52006 0.61223551,0.52006762 0 0 0 0.612232,0.52007 h 2.57139 l -1.22447,5.20068 h -2.571385 a 0.61223551,0.52006762 0 0 0 -0.612237,0.52006 0.61223551,0.52006762 0 0 0 0.612237,0.52006 h 2.326489 l -0.489786,2.08028 a 2.448942,2.0802704 0 0 1 -2.44894,2.08025 2.448942,2.0802704 0 0 1 -2.44894,-2.08025 l -1.224474,-5.20068 h 1.836704 a 0.61223551,0.52006762 0 0 0 0.612236,-0.52007 0.61223551,0.52006762 0 0 0 -0.612236,-0.52005 H 24.28263 l -0.979582,-4.16057 c 0,-1.24817 1.138756,-2.3195 2.804039,-2.81877 l -1.702011,-2.09066 c -0.379585,-0.47847 -0.244914,-1.12334 0.318355,-1.44578 0.551007,-0.33297 1.310184,-0.20796 1.70201,0.25986 l 0.551014,0.6865 v -1.87224 a 1.224471,1.0401352 0 0 1 1.224474,-1.04012 1.224471,1.0401352 0 0 1 1.224468,1.04012 v 2.37152 l 1.836706,-1.80987 c 0.404064,-0.43683 1.187738,-0.48884 1.702016,-0.1144 0.514278,0.36403 0.575501,1.01933 0.134672,1.46658 l -2.608126,2.61077 c 1.55508,0.52006 2.608126,1.56019 2.608126,2.75633 z"
       inkscape:connector-curvature="0"
       style="stroke-width:1.12854552;fill:#00ff00" />
    <path
       id="path7962-0"
       d="m 19.879009,191.66755 c -1.283421,0.72627 -2.704603,0.64238 -4.115123,0.55912 1.167584,-1.54479 2.334528,-3.07996 3.629252,-3.81523 l 0.615037,-0.28257 -2.418075,-0.14273 c -1.050626,1.38743 -2.117368,2.69661 -3.279016,3.35276 -1.283461,0.72627 -2.704605,0.64239 -4.115124,0.55913 1.167584,-1.5448 2.334528,-3.07998 3.629212,-3.81524 l 0.636282,-0.28132 -2.43928,-0.14398 c -1.050625,1.38743 -2.1173676,2.69661 -3.2790157,3.35276 -1.2834609,0.72627 -2.7046039,0.64238 -4.115163,0.55912 1.167624,-1.54479 2.3345661,-3.07996 3.6292509,-3.81523 0.1547212,-0.0875 0.319622,-0.16473 0.4945481,-0.23172 -0.668437,0.12482 -1.2906169,0.19437 -1.9275941,0.16645 -1.602096,-0.0847 -3.2036249,-0.8172 -4.8051749,-1.54949 1.61384,-0.57148 3.2383,-1.14234 4.840382,-1.05743 0.668792,0.03 1.3404961,0.17576 1.9971231,0.38843 -0.143183,-0.0858 -0.2867692,-0.17152 -0.4287912,-0.27654 -1.1870039,-0.88176 -2.141152,-2.54213 -3.0946979,-4.21213 1.4105589,0.0833 2.8317021,0.16714 4.0087651,1.03865 1.0655046,0.78762 1.9502186,2.21198 2.8085576,3.71209 l 2.439281,0.14398 -0.59398,-0.35393 c -1.187005,-0.88175 -2.141153,-2.54212 -3.09466,-4.21212 1.41052,0.0833 2.831663,0.16714 4.008726,1.03865 1.065505,0.78761 1.950219,2.21198 2.808559,3.71209 l 2.418074,0.14273 -0.572735,-0.35267 c -1.187044,-0.88176 -2.141192,-2.54214 -3.094699,-4.21214 1.41052,0.0833 2.831702,0.16715 4.008726,1.03865 1.065505,0.78762 1.950217,2.21198 2.808599,3.7121 l 1.909005,0.11268 -0.12819,1.92503 -1.909006,-0.11268 c -1.050666,1.38743 -2.117408,2.6966 -3.279057,3.35276 z"
       inkscape:connector-curvature="0"
       style="stroke-width:1.0123316;fill:#00ff00" />
    <rect
       style="fill:#784421;stroke:#000000;stroke-width:0.1773095;stroke-miterlimit:4;stroke-dasharray:none;stroke-opacity:1;paint-order:markers stroke fill"
       id="rect7907-2"
       width="40.422981"
       height="38.5411"
       x="-1.3232239"
       y="-182.36108" />
    <path
       id="path8033"
       d="m 16.030153,22.275278 0.0065,-2.544538 3.707887,-3.843066 -0.0065,2.544543 -3.707901,3.84306 m -12.3333755,2.632037 0.00333,-1.272261 -1.2326514,0.0088 A 1.231786,1.2731661 8.3938083 0 1 1.2380757,22.380288 l 0.013144,-5.089067 a 1.231786,1.2731661 8.3938083 0 1 1.2359448,-1.281029 l 1.2326609,-0.0088 0.00653,-2.544531 -1.2326515,0.0088 A 1.231786,1.2731661 8.3938083 0 1 1.2643261,12.202154 l 0.013144,-5.0890735 a 1.231786,1.2731661 8.3938083 0 1 1.2359534,-1.281015 l 1.2326609,-0.0088 0.00333,-1.272261 A 2.4635718,2.5463324 8.393788 0 1 6.22136,1.9890065 l 16.024808,-0.113763 a 2.4635718,2.5463324 8.393788 0 1 2.458782,2.527035 l 1.232674,-0.0088 -0.0099,3.816804 -1.232674,0.0088 -0.03288,12.7226875 1.232672,-0.0088 -0.0099,3.816805 -1.232672,0.0088 a 2.4635718,2.5463324 8.393788 0 1 -2.471936,2.562043 L 6.155619,27.434376 A 2.4635718,2.5463324 8.393788 0 1 3.6968189,24.907334 M 7.4408762,7.0693245 a 1.231786,1.2731661 8.3938083 0 1 1.2360004,-1.281015 1.231786,1.2731661 8.3938083 0 1 1.2293671,1.26352 1.231786,1.2731661 8.3938083 0 1 -1.2359346,1.281017 1.231786,1.2731661 8.3938083 0 1 -1.2294329,-1.263522 m -0.013154,5.0890785 a 1.231786,1.2731661 8.3938083 0 1 1.2360005,-1.281014 1.231786,1.2731661 8.3938083 0 1 1.2293772,1.263507 1.231786,1.2731661 8.3938083 0 1 -1.2359534,1.281017 1.231786,1.2731661 8.3938083 0 1 -1.2294243,-1.26351 M 6.2147836,4.5335365 6.1621966,24.889833 l 4.9306884,-0.035 0.0526,-20.3562965 -4.9306977,0.035 m 15.9722037,20.2425395 0.0526,-20.3562905 -8.628745,0.06126 -0.0526,20.3562965 8.628738,-0.06126 M 7.4014333,22.336549 A 1.231786,1.2731661 8.3938083 0 1 8.6374244,21.055534 1.231786,1.2731661 8.3938083 0 1 9.866801,22.319047 1.231786,1.2731661 8.3938083 0 1 8.6308472,23.600076 1.231786,1.2731661 8.3938083 0 1 7.4014333,22.336549 m 8.6517787,-8.967135 0.0065,-2.544537 3.707901,-3.8430595 -0.0065,2.544537 z"
       inkscape:connector-curvature="0"
       style="fill:#0000ff;stroke-width:1.25230503" />
    <rect
       style="fill:#000000;stroke-width:0;stroke-miterlimit:4;stroke-dasharray:none"
       id="rect4690-7"
       width="81.633698"
       height="6.0476727"
       x="216.66805"
       y="-85.140221"
       transform="matrix(0.00403986,0.99999184,-0.99997771,0.00667661,0,0)" />
    <path
       id="path7951-7-1"
       d="m 13.066095,278.28885 -0.24491,1.04016 H 10.0049 a 0.61223551,0.52006762 0 0 0 -0.6122323,0.52006 0.61223551,0.52006762 0 0 0 0.6122323,0.52007 h 2.57139 l -1.22447,5.20068 H 8.7804347 a 0.61223551,0.52006762 0 0 0 -0.612237,0.52006 0.61223551,0.52006762 0 0 0 0.612237,0.52006 h 2.3264893 l -0.489786,2.08028 a 2.448942,2.0802704 0 0 1 -2.4489403,2.08025 2.448942,2.0802704 0 0 1 -2.44894,-2.08025 l -1.224474,-5.20068 h 1.836704 a 0.61223551,0.52006762 0 0 0 0.612236,-0.52007 0.61223551,0.52006762 0 0 0 -0.612236,-0.52005 h -2.081596 l -0.979582,-4.16057 c 0,-1.24817 1.138756,-2.3195 2.804039,-2.81877 l -1.702011,-2.09066 c -0.379585,-0.47847 -0.244914,-1.12334 0.318355,-1.44578 0.551007,-0.33297 1.310184,-0.20796 1.70201,0.25986 l 0.551014,0.6865 v -1.87224 a 1.224471,1.0401352 0 0 1 1.224474,-1.04012 1.224471,1.0401352 0 0 1 1.224468,1.04012 v 2.37152 l 1.8367063,-1.80987 c 0.404064,-0.43683 1.187738,-0.48884 1.702016,-0.1144 0.514278,0.36403 0.575501,1.01933 0.134672,1.46658 l -2.608126,2.61077 c 1.55508,0.52006 2.608126,1.56019 2.608126,2.75633 z"
       inkscape:connector-curvature="0"
       style="stroke-width:1.12854552;fill:#00ff00" />
    <path
       id="path8080"
       d="m 56.20506,-169.3281 c 0,0 1.5875,2.0505 1.5875,3.30728 a 1.5875001,1.8898827 0 0 1 -1.5875,1.8899 1.5875001,1.8898827 0 0 1 -1.5875,-1.8899 c 0,-1.25678 1.5875,-3.30728 1.5875,-3.30728 m -11.1125,3.30728 v -8.50447 a 1.5875001,1.8898827 0 0 1 -1.58751,-1.88989 1.5875001,1.8898827 0 0 1 1.58751,-1.88986 v -0.94497 a 1.5875001,1.8898827 0 0 1 1.58749,-1.88986 h 1.58751 a 1.5875001,1.8898827 0 0 1 1.5875,1.88986 v 0.94497 h 6.35 a 1.5875001,1.8898827 0 0 1 1.5875,1.88986 v 1.88989 1.8899 a 0.79375006,0.94494132 0 0 1 0.79375,0.94493 0.79375006,0.94494132 0 0 1 -0.79375,0.94493 h -3.175 a 0.79375006,0.94494132 0 0 1 -0.79375,-0.94493 0.79375006,0.94494132 0 0 1 0.79375,-0.94493 v -1.8899 h -4.7625 v 8.50447 h 0.79375 a 1.5875001,1.8898827 0 0 1 1.5875,1.8899 v 1.88986 h -9.525 v -1.88986 a 1.5875001,1.8898827 0 0 1 1.58749,-1.8899 z"
       inkscape:connector-curvature="0"
       style="stroke-width:0.86605263;fill:#00ffff" />
    <path
       id="path6346-6-2"
       d="m 66.826189,218.56994 h 1.73869 v 3.59078 h -1.73869 v -3.59078 m -3.28613,-3.59076 h 13.52701 c 1.06061,0 1.92995,0.71814 1.92995,1.59429 v 11.1745 a 1.9299466,1.5943047 0 0 1 -1.92995,1.59429 h -13.52701 c -1.0606,0 -1.92994,-0.71814 -1.92994,-1.59429 v -11.1745 a 1.9299466,1.5943047 0 0 1 1.92994,-1.59429 m 6.76351,1.43629 a 6.9547629,5.7452421 0 0 0 -6.95476,5.74525 6.9547629,5.7452421 0 0 0 6.95476,5.74525 6.9547629,5.7452421 0 0 0 6.95476,-5.74525 6.9547629,5.7452421 0 0 0 -6.95476,-5.74525 m 1.73869,2.51354 h 1.73869 v 2.87264 h -1.73869 v -2.87264 m -3.04271,6.28388 a 1.304018,1.0772329 0 0 1 1.30402,-1.07725 1.304018,1.0772329 0 0 1 1.30402,1.07725 v 0.53861 h -2.60804 z"
       inkscape:connector-curvature="0"
       style="stroke-width:0.7901423;fill:#000000" />
    <path
       id="path8080-0"
       d="m 12.359821,118.68975 c 0,0 1.5875,2.0505 1.5875,3.30728 a 1.5875001,1.8898827 0 0 1 -1.5875,1.8899 1.5875001,1.8898827 0 0 1 -1.5875,-1.8899 c 0,-1.25678 1.5875,-3.30728 1.5875,-3.30728 m -11.1124995,3.30728 v -8.50447 a 1.5875001,1.8898827 0 0 1 -1.58751003,-1.88989 1.5875001,1.8898827 0 0 1 1.58751003,-1.88986 v -0.94497 a 1.5875001,1.8898827 0 0 1 1.58749,-1.88986 h 1.58751 a 1.5875001,1.8898827 0 0 1 1.5875,1.88986 v 0.94497 h 6.3499995 a 1.5875001,1.8898827 0 0 1 1.5875,1.88986 v 1.88989 1.8899 a 0.79375008,0.94494133 0 0 1 0.79375,0.94493 0.79375008,0.94494133 0 0 1 -0.79375,0.94493 h -3.175 a 0.79375008,0.94494133 0 0 1 -0.7937495,-0.94493 0.79375008,0.94494133 0 0 1 0.7937495,-0.94493 v -1.8899 H 6.0098215 v 8.50447 h 0.79375 a 1.5875001,1.8898827 0 0 1 1.5875,1.8899 v 1.88986 h -9.525 v -1.88986 a 1.5875001,1.8898827 0 0 1 1.58748997,-1.8899 z"
       inkscape:connector-curvature="0"
       style="stroke-width:0.86605269;fill:#00ffff" />
    <rect
       style="fill:#c8ab37;stroke:#000000;stroke-width:0;stroke-miterlimit:4;stroke-dasharray:none;stroke-opacity:1"
       id="rect6886-5"
       width="25.386763"
       height="381.74426"
       x="430.19958"
       y="-153.47322" />
    <rect
       style="fill:#c8ab37;stroke:#000000;stroke-width:0;stroke-miterlimit:4;stroke-dasharray:none;stroke-opacity:1"
       id="rect6886-5-7"
       width="45.797474"
       height="174.61331"
       x="449.33298"
       y="22.912609" />
    <rect
       style="fill:#c8ab37;stroke:#000000;stroke-width:0;stroke-miterlimit:4;stroke-dasharray:none;stroke-opacity:1"
       id="rect6886-5-7-4"
       width="23.874855"
       height="480.77402"
       x="82.901184"
       y="-182.19377" />
    <rect
       style="fill:#c8ab37;stroke:#000000;stroke-width:0;stroke-miterlimit:4;stroke-dasharray:none;stroke-opacity:1"
       id="rect6886-5-7-4-3"
       width="335.32724"
       height="98.273285"
       x="104.67762"
       y="200.23199" />
    <rect
       style="fill:#c8ab37;stroke:#000000;stroke-width:0;stroke-miterlimit:4;stroke-dasharray:none;stroke-opacity:1"
       id="rect6886-5-7-4-3-7"
       width="41.261761"
       height="73.326859"
       x="420.84531"
       y="225.1848" />
    <rect
       style="fill:#e6e6e6;stroke:#000000;stroke-width:0.59268731;stroke-miterlimit:4;stroke-dasharray:none;stroke-opacity:1"
       id="rect6827-4-4"
       width="109.30761"
       height="148.88455"
       x="97.161095"
       y="149.59885" />
    <path
       id="path6394-0-3-4"
       d="m 102.73392,249.37505 3.98136,16.9333 H 86.808534 l 3.98135,-16.9333 m 3.98134,19.35231 h 3.98134 v 24.19051 h 5.972036 v 4.83804 H 88.799204 v -4.83804 h 5.97202 z"
       inkscape:connector-curvature="0"
       style="fill:#ffff00;stroke-width:2.19443178" />
    <path
       id="path6346-8-6-6"
       d="m 194.73333,288.11756 h 1.28512 v 2.83482 h -1.28512 v -2.83482 m -2.42888,-2.83481 h 9.99823 c 0.78393,0 1.42649,0.56695 1.42649,1.25865 v 8.82197 a 1.4264824,1.2586612 0 0 1 -1.42649,1.25865 h -9.99823 c -0.78392,0 -1.42648,-0.56695 -1.42648,-1.25865 v -8.82197 a 1.4264824,1.2586612 0 0 1 1.42648,-1.25865 m 4.99911,1.13391 a 5.1404777,4.5357164 0 0 0 -5.14047,4.53572 5.1404777,4.5357164 0 0 0 5.14047,4.53573 5.1404777,4.5357164 0 0 0 5.14049,-4.53573 5.1404777,4.5357164 0 0 0 -5.14049,-4.53572 m 1.28513,1.98437 h 1.28512 v 2.26788 h -1.28512 v -2.26788 m -2.24897,4.96096 a 0.96383951,0.85044679 0 0 1 0.96384,-0.85046 0.96383951,0.85044679 0 0 1 0.96385,0.85046 v 0.42522 h -1.92769 z"
       inkscape:connector-curvature="0"
       style="fill:#000000;stroke-width:0.6035797" />
    <path
       id="path7441-9-4"
       d="m 94.494047,278.53115 c 0,0 -8.01309,7.57403 -8.01309,12.06237 0,3.7253 3.59253,6.7325 8.01309,6.7325 a 8.0130954,6.7324904 0 0 0 8.013103,-6.7325 c 0,-4.48834 -8.013103,-12.06237 -8.013103,-12.06237 m 3.29872,7.54038 1.41566,1.18938 -8.0131,6.73249 -1.41565,-1.18937 m 1.70948,-6.69885 a 1.6693949,1.4026022 0 0 1 1.6694,1.40259 1.6693949,1.4026022 0 0 1 -1.6694,1.40261 1.6693949,1.4026022 0 0 1 -1.66939,-1.40261 1.6693949,1.4026022 0 0 1 1.66939,-1.40259 m 6.0098,5.04939 a 1.6693949,1.4026022 0 0 1 1.6694,1.40259 1.6693949,1.4026022 0 0 1 -1.6694,1.4026 1.6693949,1.4026022 0 0 1 -1.6694,-1.4026 1.6693949,1.4026022 0 0 1 1.6694,-1.40259 z"
       inkscape:connector-curvature="0"
       style="fill:#00ffff;stroke-width:1.2241559" />
    <rect
       style="fill:#c8ab37;stroke:#000000;stroke-width:0;stroke-miterlimit:4;stroke-dasharray:none;stroke-opacity:1"
       id="rect6886-5-1"
       width="11.77962"
       height="30.226408"
       x="451.46136"
       y="196.84216" />
    <rect
       style="fill:#000080;stroke:#000000;stroke-width:0;stroke-miterlimit:4;stroke-dasharray:none;stroke-opacity:1"
       id="rect6825-5"
       width="247.9184"
       height="37.209232"
       x="214.18709"
       y="261.3009" />
    <rect
       style="fill:#000080;stroke:#000000;stroke-width:0;stroke-miterlimit:4;stroke-dasharray:none;stroke-opacity:1"
       id="rect6882-5-4"
       width="20.099136"
       height="29.657026"
       x="441.99728"
       y="231.65295" />
    <rect
       style="fill:#000080;stroke:#000000;stroke-width:0;stroke-miterlimit:4;stroke-dasharray:none;stroke-opacity:1"
       id="rect6882-57"
       width="20.099136"
       height="29.657026"
       x="214.46829"
       y="231.52269" />
    <path
       id="path6394-0-3-2-2-6"
       d="m 457.27559,244.46136 3.98136,18.25621 H 441.3502 l 3.98135,-18.25621 m 3.98135,20.86421 h 3.98134 v 26.0804 h 5.97203 v 5.21601 h -15.92539 v -5.21601 h 5.97202 z"
       inkscape:connector-curvature="0"
       style="fill:#ffff00;stroke-width:2.27854013" />
    <path
       id="path6420-1-4-0-7-8"
       d="m 121.22039,286.28439 h 2.65185 v 1.77646 h -2.65185 v -1.77646 m -16.79501,0 h 2.65185 v 1.77646 h -2.65185 v -1.77646 m 10.60736,-8.88247 v 2.66473 h -1.76788 v -2.66473 h 1.76788 m -7.14229,2.22062 1.88281,1.90085 -1.25521,1.25242 -1.8828,-1.88306 1.2552,-1.27021 m 10.63389,1.89195 1.87398,-1.89195 1.26404,1.27021 -1.88281,1.88306 -1.25521,-1.26132 m -4.37554,0.32866 a 5.3036936,5.3294666 0 0 1 5.30369,5.32947 c 0,1.97189 -1.06958,3.6951 -2.65184,4.61886 v 1.59884 a 0.88394889,0.88824448 0 0 1 -0.88395,0.88826 h -3.53579 a 0.88394889,0.88824448 0 0 1 -0.88395,-0.88826 v -1.59884 c -1.58227,-0.92376 -2.65184,-2.64697 -2.65184,-4.61886 a 5.3036936,5.3294666 0 0 1 5.30368,-5.32947 m 1.7679,13.32366 v 0.88824 a 0.88394889,0.88824448 0 0 1 -0.88396,0.88827 h -1.76788 a 0.88394889,0.88824448 0 0 1 -0.88395,-0.88827 v -0.88824 h 3.53579 m -2.65184,-2.66472 h 1.76788 v -1.89196 c 1.52924,-0.39083 2.65185,-1.78539 2.65185,-3.43751 a 3.5357956,3.5529777 0 0 0 -3.53579,-3.55296 3.5357956,3.5529777 0 0 0 -3.53579,3.55296 c 0,1.65212 1.12261,3.04668 2.65185,3.43751 z"
       inkscape:connector-curvature="0"
       style="fill:#d4aa00;stroke-width:0.88609403" />
    <rect
       style="fill:#483737;stroke:#000000;stroke-width:0.40382126;stroke-miterlimit:4;stroke-dasharray:none;stroke-opacity:1"
       id="rect6823-4-0"
       width="155.85153"
       height="60.601547"
       x="249.4016"
       y="168.42543" />
    <path
       id="path6697-9-9"
       d="M 282.87739,210.00879 H 285.75 v 2.04104 h -2.87261 v -2.04104 m -22.98096,-3.06161 h 22.98096 a 2.8726193,2.0410714 0 0 1 2.87261,2.04105 h -4.30892 v 2.04108 h -20.10834 v 4.08213 h 4.30893 v 3.06161 h 15.79941 v 1.02056 H 285.75 a 2.8726193,2.0410714 0 0 1 -2.87261,2.04104 h -5.74525 v 1.02057 h -2.87261 v -1.02057 h -4.30893 v 1.02057 h -5.74525 v -1.02057 h -4.30892 a 2.8726193,2.0410714 0 0 1 -2.87262,-2.04104 v -10.20538 a 2.8726193,2.0410714 0 0 1 2.87262,-2.04105 m 21.54465,10.20534 h -14.3631 v -5.10269 h 14.3631 v 1.02056 H 285.75 v 2.04105 h -4.30892 v 2.04108 m -8.61786,-3.0616 v 2.04108 h 2.87261 v -2.04108 h -2.87261 m -11.49048,-6.12322 v 2.04109 h 1.43632 v -2.04109 h -1.43632 m 2.87261,0 v 2.04109 h 1.43632 v -2.04109 h -1.43632 m 2.87263,0 v 2.04109 h 1.43631 v -2.04109 h -1.43631 m 2.87262,0 v 2.04109 h 1.43631 v -2.04109 h -1.43631 m 2.87262,0 v 2.04109 h 1.43631 v -2.04109 h -1.43631 m 2.87261,0 v 2.04109 h 1.43631 v -2.04109 h -1.43631 m 7.18156,8.1643 H 285.75 v 2.04105 h -2.87261 z"
       inkscape:connector-curvature="0"
       style="fill:#00ff00;stroke-width:1.21070445" />
    <path
       id="path6797-4-6"
       d="m 388.72159,218.69416 h -23.0027 v -11.20972 h 23.0027 m 3.28612,-1.8683 h -29.57493 c -1.82378,0 -3.2861,0.83139 -3.2861,1.8683 v 11.20972 a 3.286102,1.8682874 0 0 0 3.2861,1.8683 h 29.57493 a 3.286102,1.8682874 0 0 0 3.28609,-1.8683 v -11.20972 c 0,-1.03691 -1.47875,-1.8683 -3.28609,-1.8683 z"
       inkscape:connector-curvature="0"
       style="fill:#ff6600;stroke-width:1.23888874" />
    <path
       id="path6549-6-0"
       d="m 317.38846,195.27009 c -0.66052,0 -1.04975,-0.0594 -1.15591,-0.16664 l -0.49539,7.25682 c 0.62514,0.38147 1.43899,0.6792 2.42978,0.91754 0.99078,0.2504 2.42977,0.32156 4.31698,0.20266 1.87541,-0.10718 3.83338,-0.52431 5.85034,-1.22734 l -0.93181,-11.22488 c -1.03797,1.0367 -2.55953,2.01382 -4.58827,2.90749 -1.80464,0.77453 -3.36159,1.22738 -4.64724,1.33462 h -0.77848 m -0.10614,-2.90754 c -0.81386,0.71496 -1.14412,1.19164 -0.99078,1.4538 0.10614,0.26211 0.67232,0.33372 1.71028,0.22653 1.28566,-0.10719 2.74824,-0.52431 4.36416,-1.22734 1.10873,-0.48856 2.06413,-1.00095 2.87799,-1.56102 0.81385,-0.56003 1.36822,-1.02476 1.6631,-1.40609 0.29489,-0.3693 0.40103,-0.63155 0.33024,-0.77454 -0.0826,-0.19051 -0.44821,-0.28599 -1.10873,-0.28599 -1.33284,0 -2.98414,0.42875 -4.97751,1.28693 -1.69848,0.75072 -2.98413,1.51336 -3.86876,2.28786 m 11.05194,-3.7416 c 0.0826,0.15492 0.11796,0.32156 0.11796,0.51238 l 1.38002,17.1233 c 0,2.06146 -0.7195,3.68202 -2.09952,4.84978 -1.40361,1.16776 -3.30261,1.76355 -5.697,1.76355 -2.359,0 -4.24621,-0.60768 -5.66161,-1.84696 -1.41541,-1.19158 -2.1349,-2.81218 -2.1349,-4.86172 l 0.82565,-12.45221 c 0,-0.2977 0.12972,-0.63156 0.38922,-1.00095 0.2595,-0.38147 0.49539,-0.6792 0.7195,-0.89367 l 0.38922,-0.34542 c 1.14412,-0.96523 2.52414,-1.79931 4.15185,-2.49045 1.09694,-0.50049 2.18208,-0.86988 3.23185,-1.10818 1.03796,-0.23823 1.98156,-0.32155 2.80721,-0.22653 0.83745,0.0955 1.36823,0.41704 1.58054,0.97712 z"
       inkscape:connector-curvature="0"
       style="fill:#ff0000;stroke-width:1.18553507" />
    <rect
       style="fill:#000000;stroke-width:0;stroke-miterlimit:4;stroke-dasharray:none"
       id="rect4690-3-1"
       width="351.85257"
       height="6.0681252"
       x="-175.03125"
       y="-87.236473"
       transform="matrix(0.00272896,0.99999628,-0.99650676,0.08351215,0,0)" />
    <rect
       style="fill:#000000;stroke-width:0;stroke-miterlimit:4;stroke-dasharray:none"
       id="rect4690-3-3"
       width="118.60181"
       height="6.0493398"
       x="183.68198"
       y="-84.244652"
       transform="matrix(0.00809593,0.99996723,-0.99960126,0.02823673,0,0)" />
    <path
       id="path6302-9-8-6"
       d="m 93.717687,204.28247 a 1.3590726,1.2473227 0 0 0 -1.35907,1.2473 1.3590726,1.2473227 0 0 0 1.35907,1.24731 1.3590726,1.2473227 0 0 0 1.35907,-1.24731 1.3590726,1.2473227 0 0 0 -1.35907,-1.2473 m 0.67954,-11.22591 c 6.115833,0 6.265333,4.45293 3.05792,5.92478 -1.34549,0.61116 -1.94348,1.92089 -2.20171,3.08088 0.65236,0.24939 1.22318,0.63615 1.65808,1.13506 5.028573,-2.49466 10.437693,-1.50928 10.437693,2.95614 0,5.61298 -4.8519,5.73767 -6.45561,2.78153 -0.67953,-1.23486 -2.120153,-1.78365 -3.384093,-2.02064 -0.27183,0.59872 -0.69312,1.11012 -1.23675,1.53417 2.70455,4.60266 1.63088,9.5545 -3.23461,9.5545 -6.11582,0 -6.23813,-4.46542 -3.03073,-5.93722 1.33189,-0.61121 1.92989,-1.90844 2.2017,-3.05595 -0.66594,-0.24938 -1.25035,-0.64864 -1.68525,-1.14755 -5.01497,2.46972 -10.39689,1.49679 -10.39689,-2.95614 0,-5.61298 4.83829,-5.75017 6.442,-2.79402 0.67953,1.23486 2.10655,1.7712 3.37049,2.00819 0.25822,-0.59871 0.69313,-1.12256 1.25034,-1.52172 -2.70455,-4.60261 -1.63088,-9.54201 3.20742,-9.54201 z"
       inkscape:connector-curvature="0"
       style="fill:#000080;stroke-width:1.30199921" />
    <path
       id="path7452-9-5-1"
       d="m 67.632933,294.57371 c -0.0822,-0.48221 0.0313,-1.00334 0.32721,-1.49819 l 7.45193,-11.60569 c 0.83539,-1.28859 2.84073,-1.8346 4.42921,-1.23569 l 4.37546,1.6303 c 1.63762,0.59555 2.26741,2.11904 1.44842,3.40654 l -1.54995,2.415 c 0.77743,0.29394 1.41853,0.76434 1.80502,1.36727 l 2.90184,-0.1957 c 1.78702,-0.12051 3.29006,0.92052 3.38571,2.33889 l 0.44722,6.63168 -3.21337,0.2167 -0.44722,-6.63168 -2.90184,0.19569 c -0.57735,1.207 -2.00205,2.06039 -3.5923,2.16763 -0.75416,0.0509 -1.46943,-0.0546 -2.11141,-0.29424 l -2.17565,3.39424 c -0.83447,1.30133 -2.78978,1.85682 -4.42829,1.24849 l -4.37549,-1.6303 c -1.01298,-0.36832 -1.6229,-1.11001 -1.77645,-1.92115 m 12.46469,-16.15391 0.78401,-5.46963 2.19592,0.81456 5.84489,2.17304 2.19593,0.81464 -5.17586,3.84045 z"
       inkscape:connector-curvature="0"
       style="fill:#ff0000;stroke-width:1.45065606" />
    <rect
       style="fill:#c87137;stroke:#000000;stroke-width:0.69033903;stroke-miterlimit:4;stroke-dasharray:none;stroke-opacity:1"
       id="rect7099-6-2"
       width="133.80357"
       height="33.260853"
       x="-183.82698"
       y="-128.08354"
       transform="rotate(90.48087)" />
    <path
       id="path6357-9-6"
       d="m 93.376627,-177.07006 6.749533,-6.93343 15.07496,7.92313 -13.49906,13.86687 -8.325433,-14.85657 m 15.206283,9.73896 1.68738,-1.73336 4.87508,4.74577 4.21846,-4.3334 1.95001,1.89829 -10.1243,10.40016 -1.95001,-1.89829 4.21846,-4.3334 z"
       inkscape:connector-curvature="0"
       style="fill:#ffff00;stroke-width:1.28289437" />
    <path
       id="path6472-1-0-7"
       d="m 105.91137,-161.71243 c -0.95217,1.46897 -0.84412,3.49137 0.24279,4.54475 l 7.83378,7.59208 c 1.08695,1.05343 2.72191,0.72024 3.67409,-0.74872 l 10.29385,-15.8806 c 0.95218,-1.46896 0.84412,-3.49139 -0.2428,-4.54479 l -7.8338,-7.5921 c -1.08692,-1.05337 -2.72188,-0.72018 -3.67406,0.74879 l -10.29385,15.88059 m 1.95841,1.89799 10.29385,-15.88059 7.83381,7.59208 -10.29387,15.8806 -7.83379,-7.59209 m 9.05582,13.08585 c -0.95217,1.46896 -0.84413,3.49141 0.24282,4.54481 l 2.93768,2.84704 c 1.08689,1.05337 2.72186,0.72017 3.67406,-0.74879 l 13.72513,-21.17411 c 0.95217,-1.46896 0.84414,-3.49139 -0.2428,-4.54478 l -2.93766,-2.84702 c -1.08694,-1.05341 -2.72191,-0.72021 -3.67411,0.74874 l -13.72512,21.17411 m 5.38973,-3.39547 10.29386,-15.8806 2.93767,2.84703 -10.29384,15.88059 -2.93769,-2.84702 m 1.59223,-0.61165 1.46885,1.42353 3.43129,-5.29354 -1.46886,-1.42353 -3.43128,5.29354 m 5.14692,-7.9403 1.46885,1.42353 3.43127,-5.29353 -1.46883,-1.42355 z"
       inkscape:connector-curvature="0"
       style="stroke-width:1.4525727" />
    <path
       id="path6494-6-4-6"
       d="m 115.36798,-117.68162 0.17503,29.477424 -17.751268,0.11025 -0.17503,-29.477414 m -3.5502,0.0221 0.17503,29.477424 c 0.0114,1.81776 1.59931,3.26544 3.56964,3.2532 l 21.301478,-0.13239 a 3.2753239,3.5503152 89.553061 0 0 3.53083,-3.29733 l -0.068,-11.46344 5.34481,3.24217 1.77509,-0.0104 -0.0778,-13.101074 -1.77509,0.0104 -5.30592,3.30837 -0.068,-11.46344 a 3.2753239,3.5503152 89.553061 0 0 -3.56973,-3.2532 l -21.301468,0.13238 c -1.97033,0.0117 -3.54145,1.49594 -3.53075,3.29733 z"
       inkscape:connector-curvature="0"
       style="fill:#cccccc;stroke-width:1.7050246" />
    <flowRoot
       xml:space="preserve"
       id="flowRoot8603"
       style="font-style:normal;font-weight:normal;font-size:40px;line-height:1.25;font-family:sans-serif;letter-spacing:0px;word-spacing:0px;fill:#000000;fill-opacity:1;stroke:none"
       transform="matrix(0.26458333,0,0,0.26458333,0,-182.99999)"><flowRegion
         id="flowRegion8605"><rect
           id="rect8607"
           width="251.42857"
           height="62.857143"
           x="477.14285"
           y="1522.7446" /></flowRegion><flowPara
         id="flowPara8611">Bedroom</flowPara></flowRoot>    <path
       id="path6786-7-2"
       d="m 405.94642,-157.62975 a 4.6113091,3.8553573 0 0 0 4.61131,-3.85536 c 0,-2.1333 -2.0674,-3.85536 -4.61131,-3.85536 -2.5516,0 -4.61131,1.72206 -4.61131,3.85536 a 4.6113091,3.8553573 0 0 0 4.61131,3.85536 m 5.37986,-9.63839 a 1.537103,1.2851191 0 0 1 1.53711,1.28512 v 8.99582 a 1.537103,1.2851191 0 0 1 -1.53711,1.28513 h -10.75972 c -0.85309,0 -1.5371,-0.57832 -1.5371,-1.28513 v -8.99582 c 0,-0.71325 0.68401,-1.28512 1.5371,-1.28512 h 10.75972 m -8.45407,5.78303 a 3.074206,2.5702382 0 0 1 3.07421,-2.57023 3.074206,2.5702382 0 0 1 3.07421,2.57023 3.074206,2.5702382 0 0 1 -3.07421,2.57023 3.074206,2.5702382 0 0 1 -3.07421,-2.57023 z"
       inkscape:connector-curvature="0"
       style="fill:#0000ff;stroke-width:0.70273757" />
    <rect
       style="fill:#e9ddaf;stroke:#000000;stroke-width:0;stroke-miterlimit:4;stroke-dasharray:none;stroke-opacity:1;paint-order:markers stroke fill"
       id="rect8814"
       width="305.16177"
       height="275.16666"
       x="494.63583"
       y="22.589294" />
    <path
       id="rect6246-2"
       style="fill:#784421;stroke:#000000;stroke-width:0.37132305;stroke-miterlimit:4;stroke-dasharray:none;stroke-opacity:1"
       d="m 495.13129,129.71727 v 68.422 c 0.0932,1.25995 0.0376,2.54759 0,3.82449 v 96.45585 h 33.72265 V 129.71727 Z"
       inkscape:connector-curvature="0" />
    <rect
       style="fill:#d38d5f;stroke-width:0;stroke-miterlimit:4;stroke-dasharray:none"
       id="rect4678-1"
       width="6.0476079"
       height="52.916668"
       x="796.77399"
       y="107.25509" />
    <flowRoot
       xml:space="preserve"
       id="flowRoot6222-0"
       style="font-style:normal;font-weight:normal;font-size:40px;line-height:1.25;font-family:sans-serif;letter-spacing:0px;word-spacing:0px;fill:#000000;fill-opacity:1;stroke:none"
       transform="matrix(0.26458333,0,0,0.26458333,66.524015,-227.60206)"><flowRegion
         id="flowRegion6224-5"><rect
           id="rect6226-8"
           width="548.57141"
           height="94.285713"
           x="2185.7144"
           y="1417.0304" /></flowRegion><flowPara
         id="flowPara6228-3">Kitchen</flowPara></flowRoot>    <rect
       style="fill:#e3dedb;stroke:#000000;stroke-width:0.50192952;stroke-miterlimit:4;stroke-dasharray:none;stroke-opacity:1"
       id="rect6250-5"
       width="59.181137"
       height="82.431198"
       x="724.66187"
       y="215.49533" />
    <rect
       style="fill:#999999;stroke:#000000;stroke-width:0.0234069;stroke-miterlimit:4;stroke-dasharray:none;stroke-opacity:1"
       id="rect6290-4"
       width="74.090111"
       height="77.878014"
       x="528.85394"
       y="220.5416" />
    <rect
       style="fill:#a05a2c;stroke:#000000;stroke-width:0.4032428;stroke-miterlimit:4;stroke-dasharray:none;stroke-opacity:1"
       id="rect6292-9"
       width="66.200386"
       height="77.520325"
       x="602.88086"
       y="220.29794" />
    <rect
       style="fill:#e6e6e6;stroke:#000000;stroke-width:0.61322004;stroke-miterlimit:4;stroke-dasharray:none;stroke-opacity:1"
       id="rect6294-1"
       width="57.443195"
       height="65.236015"
       x="537.46106"
       y="226.44101" />
    <rect
       style="fill:#e6e6e6;stroke:#000000;stroke-width:0.44861084;stroke-miterlimit:4;stroke-dasharray:none;stroke-opacity:1"
       id="rect6296-7"
       width="97.910301"
       height="26.756977"
       x="528.8147"
       y="131.18723" />
    <path
       id="path6313-1"
       d="m 796.39589,153.72917 a 7.4839356,8.3910718 0.26890832 0 0 -7.44448,-8.42609 l -9.97843,-0.0469 a 7.4839356,8.3910718 0.26890832 0 0 -7.52325,8.35587 7.4839356,8.3910718 0.26890832 0 0 7.4445,8.42609 l 9.97842,0.0469 a 7.4839356,8.3910718 0.26890832 0 0 7.52324,-8.35585 m -4.96297,-5.61739 -0.0129,2.797 -2.49463,-0.0122 0.013,-2.79699 2.49464,0.0122 m -0.0195,4.19549 -0.0131,2.79698 -2.49463,-0.0122 0.0131,-2.797 2.49461,0.0122 m -0.0195,4.19548 -0.0129,2.79699 -2.49463,-0.0122 0.013,-2.79698 2.49463,0.0122 m -3.70255,-8.40854 -0.0129,2.79699 -2.49465,-0.0122 0.013,-2.79698 2.49464,0.0122 m -0.0195,4.19549 -0.0129,2.79699 -2.49463,-0.0122 0.0131,-2.79699 2.49463,0.0122 m -0.0195,4.19549 -0.013,2.797 -2.49463,-0.0122 0.0129,-2.79699 2.49463,0.0122 m -3.70255,-8.40854 -0.0131,2.79699 -2.49462,-0.0122 0.013,-2.79699 2.49463,0.0122 m -0.0195,4.19549 -0.013,2.79699 -2.49463,-0.0122 0.0129,-2.79699 2.49464,0.0122 m -0.0195,4.19549 -0.013,2.79699 -2.49463,-0.0122 0.013,-2.79698 2.49462,0.0122 m -4.97609,-2.82042 a 2.4946452,2.7970239 0.26890832 0 1 -2.50775,2.78531 2.4946452,2.7970239 0.26890832 0 1 -2.48151,-2.80873 2.4946452,2.7970239 0.26890832 0 1 2.50776,-2.78527 2.4946452,2.7970239 0.26890832 0 1 2.4815,2.80869 z"
       inkscape:connector-curvature="0"
       style="fill:#ff6600;stroke-width:1.3207556" />
    <path
       id="path6575-4-9-6"
       d="m 694.94723,80.192002 h -10.28095 a 1.2851189,1.3796114 0 0 0 -1.28512,1.37962 v 8.27766 a 1.2851189,1.3796114 0 0 0 1.28512,1.37962 h 10.28095 a 1.2851189,1.3796114 0 0 0 1.28512,-1.37962 v -8.27766 a 1.2851189,1.3796114 0 0 0 -1.28512,-1.37962 m -7.86493,8.44321 -0.90601,0.97265 c -1.00882,-1.06922 -1.51001,-2.4833 -1.51001,-3.89741 0,-1.41411 0.50119,-2.8282 1.50359,-3.9043 l 0.906,0.97262 c -0.74536,0.81398 -1.12447,1.86938 -1.12447,2.93168 0,1.06231 0.37911,2.11769 1.1309,2.92476 m 2.72445,-0.16555 a 2.5702378,2.7592226 0 0 1 -2.57023,-2.75921 2.5702378,2.7592226 0 0 1 2.57023,-2.75921 2.5702378,2.7592226 0 0 1 2.57024,2.75921 2.5702378,2.7592226 0 0 1 -2.57024,2.75921 m 3.63689,1.14508 -0.90601,-0.97262 c 0.74537,-0.81398 1.12448,-1.86936 1.12448,-2.93167 0,-1.0623 -0.37911,-2.1177 -1.1309,-2.92477 l 0.90601,-0.97264 c 1.00881,1.06921 1.51001,2.4833 1.51001,3.89741 0,1.41411 -0.5012,2.82819 -1.50359,3.90429 m -3.63689,-5.28391 a 1.2851189,1.3796114 0 0 0 -1.28512,1.37962 1.2851189,1.3796114 0 0 0 1.28512,1.37962 1.2851189,1.3796114 0 0 0 1.28512,-1.37962 1.2851189,1.3796114 0 0 0 -1.28512,-1.37962 z"
       inkscape:connector-curvature="0"
       style="fill:#ff00ff;stroke-width:0.66576368" />
    <path
       id="path6461-1-4"
       d="m 656.08938,97.167386 h 5.04598 v -10.29986 h 3.36399 v 10.29986 h 5.04599 l 6.72797,16.479754 h -26.9119 l 6.72797,-16.479754 m 10.09197,18.539694 a 3.3639882,4.119935 0 0 1 -3.364,4.11997 3.3639882,4.119935 0 0 1 -3.36398,-4.11997 z"
       inkscape:connector-curvature="0"
       style="fill:#ffff00;stroke-width:1.86141145" />
    <path
       id="path6383-1-3"
       d="m 548.36859,297.14956 92.32025,1.05746 -0.32325,-0.74369 10.82004,0.12275 -0.56174,-1.46571 -10.86047,-0.12836 -0.56173,-1.46572 10.85642,0.118 -0.56175,-1.4657 -10.82021,-0.12275 -0.24617,-0.74282 -92.31209,-1.03666 2.2509,5.87327 m 10.29477,-1.34776 -1.12347,-2.93143 70.55883,0.79511 1.12752,2.94183 -70.56288,-0.80551 m 5.12915,-0.6715 10.86044,0.12836 -0.56574,-1.47611 -10.8564,-0.118 0.56171,1.46571 m 16.30896,0.19017 10.85648,0.11794 -0.56177,-1.46571 -10.86047,-0.12836 0.56575,1.47613 m 16.26843,0.18453 10.85656,0.11795 -0.56184,-1.46574 -10.86038,-0.12834 0.56566,1.47609 m 16.26857,0.18453 10.85641,0.11799 -0.5617,-1.46571 -10.8605,-0.12834 z"
       inkscape:connector-curvature="0"
       style="fill:#ffff00;stroke-width:1.9927876" />
    <path
       id="path7452-6-7"
       d="m 529.85278,212.53159 c 0.21268,-0.41156 0.51717,-0.76442 0.87557,-1.01413 l 8.59465,-5.62435 c 0.95724,-0.62083 1.97134,-0.13449 2.25487,1.05122 l 0.79075,3.25094 c 0.30333,1.20537 -0.23235,2.67348 -1.18297,3.30092 l -1.78819,1.1707 c 0.13835,0.58093 0.13754,1.23692 -0.0239,1.88022 l 1.16798,1.16507 c 0.71932,0.71744 0.74848,2.20753 0.0689,3.35162 l -3.1772,5.34937 -1.29338,-1.29017 3.17722,-5.34936 -1.16799,-1.16507 c -0.82083,0.67484 -1.77605,0.69029 -2.41611,0.0518 -0.30342,-0.3029 -0.51422,-0.7091 -0.62976,-1.1866 l -2.51223,1.64665 c -0.96327,0.63117 -1.96377,0.1748 -2.26098,-1.04088 l -0.79078,-3.25096 c -0.18765,-0.74558 -0.0386,-1.59796 0.31354,-2.2971 m 12.73389,-6.87891 3.04531,-3.88879 0.3987,1.62872 1.05871,4.33903 0.39866,1.62878 -3.84267,0.63128 z"
       inkscape:connector-curvature="0"
       style="fill:#ff0000;stroke-width:1.04071498" />
    <rect
       style="fill:#999999;stroke:#000000;stroke-width:0.36686435;stroke-miterlimit:4;stroke-dasharray:none;stroke-opacity:1"
       id="rect6292-5-8"
       width="54.897007"
       height="77.375816"
       x="662.96124"
       y="220.55077" />
    <rect
       style="fill:#333333;stroke:#000000;stroke-width:0.39565676;stroke-miterlimit:4;stroke-dasharray:none;stroke-opacity:1;paint-order:markers stroke fill"
       id="rect7828-6"
       width="4.6487842"
       height="30.238094"
       x="795.90491"
       y="194.18961" />
    <ellipse
       style="fill:#000000;stroke:#000000;stroke-width:0;stroke-miterlimit:4;stroke-dasharray:none;stroke-opacity:1;paint-order:markers stroke fill"
       id="path8615-88"
       cx="675.82166"
       cy="239.54678"
       rx="7.5595241"
       ry="7.5595245" />
    <ellipse
       style="fill:#000000;stroke:#000000;stroke-width:0;stroke-miterlimit:4;stroke-dasharray:none;stroke-opacity:1;paint-order:markers stroke fill"
       id="path8615-0-3"
       cx="701.14606"
       cy="240.68069"
       rx="12.095238"
       ry="11.339286" />
    <rect
       style="fill:#c87137;stroke:#000000;stroke-width:0;stroke-miterlimit:4;stroke-dasharray:none;stroke-opacity:1;paint-order:markers stroke fill"
       id="rect8644-9"
       width="53.681797"
       height="9.2428684"
       x="662.96124"
       y="288.68362" />
    <ellipse
       style="fill:#000000;stroke:#000000;stroke-width:0;stroke-miterlimit:4;stroke-dasharray:none;stroke-opacity:1;paint-order:markers stroke fill"
       id="path8615-8-0"
       cx="677.33356"
       cy="269.0289"
       rx="7.5595241"
       ry="7.5595245" />
    <ellipse
       style="fill:#000000;stroke:#000000;stroke-width:0;stroke-miterlimit:4;stroke-dasharray:none;stroke-opacity:1;paint-order:markers stroke fill"
       id="path8615-3-9"
       cx="701.52399"
       cy="269.78488"
       rx="7.5595241"
       ry="7.5595245" />
    <path
       id="path8667-7"
       d="m 542.34775,134.97965 c -3.99846,0 -7.24665,2.63823 -7.24665,5.8845 v 0 c 0,1.16709 0.42626,2.29494 1.22766,3.2659 -0.77581,1.14745 -1.22766,2.57939 -1.22766,4.08971 0,1.11806 0,2.28515 0,3.43264 0,1.08861 0.75877,1.96149 1.7051,1.96149 h 11.08309 c 0.94634,0 1.7051,-0.87288 1.7051,-1.96149 0,-1.12785 0,-2.34401 0,-3.43264 0,-1.19651 -0.29,-2.38319 -0.85256,-3.43262 l 1.7051,-1.96147 -2.55764,-2.94225 -1.79033,2.05955 c -1.12536,-0.70613 -2.42978,-1.07882 -3.75121,-1.07882 -1.57722,0 -3.02654,0.5198 -4.22012,1.38285 -0.30675,-0.4315 -0.46889,-0.89247 -0.46889,-1.38285 0,-1.75552 2.09728,-3.18744 4.68901,-3.18744 v 0 c 1.21912,0 2.38711,0.32359 3.26523,0.9023 l 1.72215,-1.98112 c -1.34701,-1.03961 -3.12884,-1.61824 -4.98738,-1.61824 m 0,7.84602 c 0.29,0 0.5712,0.0393 0.85253,0.0882 -2.6514,0.47076 -4.68901,3.09916 -4.68901,6.28661 v 2.45187 h -1.70507 v -2.45187 a 5.5415511,6.37487 0 0 1 5.54155,-6.37487 z"
       inkscape:connector-curvature="0"
       style="fill:#a05a2c;stroke-width:0.91440362" />
    <rect
       style="fill:#e9ddaf;stroke:#000000;stroke-width:0;stroke-miterlimit:4;stroke-dasharray:none;stroke-opacity:1;paint-order:markers stroke fill"
       id="rect8814-4"
       width="297.60226"
       height="215.44641"
       x="501.3179"
       y="-182.27379" />
    <rect
       style="fill:#ffffff;stroke-width:0.26458332"
       id="rect4524"
       width="1.5119048"
       height="2.2678571"
       x="506.48807"
       y="-181.51785" />
    <rect
       style="fill:#decd87;stroke:url(#linearGradient4532);stroke-width:0.80996311;stroke-miterlimit:4;stroke-dasharray:none"
       id="rect4526-2"
       width="298.21182"
       height="204.08476"
       x="501.57462"
       y="-181.50665" />
    <rect
       style="fill:#f2f2f2;stroke-width:0.26458333;stroke-miterlimit:4;stroke-dasharray:none"
       id="rect4733"
       width="101.29762"
       height="201.83929"
       x="698.5"
       y="-181.51785" />
    <rect
       style="fill:#cccccc;stroke:#000000;stroke-width:0.02645833;stroke-miterlimit:4;stroke-dasharray:none;stroke-opacity:1"
       id="rect6175"
       width="60.476185"
       height="17.386911"
       x="506.48807"
       y="-179.25" />
    <ellipse
       style="fill:#cccccc;stroke:#000000;stroke-width:0.02645833;stroke-miterlimit:4;stroke-dasharray:none;stroke-opacity:1"
       id="path6177"
       cx="537.48218"
       cy="-142.96429"
       rx="17.386906"
       ry="30.238094" />
    <ellipse
       style="fill:#280b0b;stroke:#000000;stroke-width:0.02645833;stroke-miterlimit:4;stroke-dasharray:none;stroke-opacity:1"
       id="path6179"
       cx="537.86011"
       cy="-140.31845"
       rx="11.717261"
       ry="18.520834" />
    <rect
       style="fill:#cccccc;stroke:#000000;stroke-width:0.03520973;stroke-miterlimit:4;stroke-dasharray:none;stroke-opacity:1"
       id="rect6181"
       width="90.705536"
       height="46.860294"
       x="592.67102"
       y="-182.26944" />
    <rect
       style="fill:#ffffff;stroke:#000000;stroke-width:0.0338782;stroke-miterlimit:4;stroke-dasharray:none;stroke-opacity:1"
       id="rect6185"
       width="68.788635"
       height="30.986265"
       x="604.00745"
       y="-175.46396" />
    <flowRoot
       xml:space="preserve"
       id="flowRoot6214"
       style="font-style:normal;font-weight:normal;font-size:40px;line-height:1.25;font-family:sans-serif;letter-spacing:0px;word-spacing:0px;fill:#000000;fill-opacity:1;stroke:none"
       transform="matrix(0.26458333,0,0,0.26458333,-40.065484,-167.12501)"><flowRegion
         id="flowRegion6216"><rect
           id="rect6218"
           width="400"
           height="91.428574"
           x="2165.7144"
           y="362.74466" /></flowRegion><flowPara
         id="flowPara6220">Bathroom</flowPara></flowRoot>    <path
       id="path6420"
       d="m 616.24277,-176.04982 h 2.65185 v 1.77646 h -2.65185 v -1.77646 m -16.79503,0 h 2.65185 v 1.77646 h -2.65185 v -1.77646 m 10.60738,-8.88247 v 2.66473 h -1.76789 v -2.66473 h 1.76789 m -7.1423,2.22062 1.88281,1.90085 -1.25521,1.25242 -1.88281,-1.88306 1.25521,-1.27021 m 10.6339,1.89195 1.87398,-1.89195 1.26404,1.27021 -1.88281,1.88306 -1.25521,-1.26132 m -4.37554,0.32866 a 5.3036936,5.3294666 0 0 1 5.30369,5.32947 c 0,1.97189 -1.06958,3.6951 -2.65184,4.61886 v 1.59884 a 0.88394889,0.88824448 0 0 1 -0.88395,0.88826 h -3.5358 a 0.88394889,0.88824448 0 0 1 -0.88395,-0.88826 v -1.59884 c -1.58227,-0.92376 -2.65184,-2.64697 -2.65184,-4.61886 a 5.3036936,5.3294666 0 0 1 5.30369,-5.32947 m 1.7679,13.32366 v 0.88824 a 0.88394889,0.88824448 0 0 1 -0.88396,0.88827 h -1.76789 a 0.88394889,0.88824448 0 0 1 -0.88395,-0.88827 v -0.88824 h 3.5358 m -2.65185,-2.66472 h 1.76789 v -1.89196 c 1.52924,-0.39083 2.65185,-1.78539 2.65185,-3.43751 a 3.5357956,3.5529777 0 0 0 -3.53579,-3.55296 3.5357956,3.5529777 0 0 0 -3.5358,3.55296 c 0,1.65212 1.12261,3.04668 2.65185,3.43751 z"
       inkscape:connector-curvature="0"
       style="fill:#ff6600;stroke-width:0.88609403" />
    <path
       id="path6420-1"
       d="m 640.55968,-174.84658 h 2.65185 v 1.77646 h -2.65185 v -1.77646 m -16.79503,0 h 2.65185 v 1.77646 h -2.65185 v -1.77646 m 10.60738,-8.88247 v 2.66473 h -1.76789 v -2.66473 h 1.76789 m -7.1423,2.22062 1.88281,1.90085 -1.25521,1.25242 -1.88281,-1.88306 1.25521,-1.27021 m 10.6339,1.89195 1.87398,-1.89195 1.26404,1.27021 -1.88281,1.88306 -1.25521,-1.26132 m -4.37554,0.32866 a 5.3036936,5.3294666 0 0 1 5.30369,5.32947 c 0,1.97189 -1.06958,3.6951 -2.65184,4.61886 v 1.59884 a 0.88394889,0.88824448 0 0 1 -0.88395,0.88826 h -3.5358 a 0.88394889,0.88824448 0 0 1 -0.88395,-0.88826 v -1.59884 c -1.58227,-0.92376 -2.65184,-2.64697 -2.65184,-4.61886 a 5.3036936,5.3294666 0 0 1 5.30369,-5.32947 m 1.7679,13.32366 v 0.88824 a 0.88394889,0.88824448 0 0 1 -0.88396,0.88827 h -1.76789 a 0.88394889,0.88824448 0 0 1 -0.88395,-0.88827 v -0.88824 h 3.5358 m -2.65185,-2.66472 h 1.76789 v -1.89196 c 1.52924,-0.39083 2.65185,-1.78539 2.65185,-3.43751 a 3.5357956,3.5529777 0 0 0 -3.53579,-3.55296 3.5357956,3.5529777 0 0 0 -3.5358,3.55296 c 0,1.65212 1.12261,3.04668 2.65185,3.43751 z"
       inkscape:connector-curvature="0"
       style="fill:#ff6600;stroke-width:0.88609403" />
    <path
       id="path6420-1-4"
       d="m 666.26207,-174.84658 h 2.65185 v 1.77646 h -2.65185 v -1.77646 m -16.79503,0 h 2.65185 v 1.77646 h -2.65185 v -1.77646 m 10.60738,-8.88247 v 2.66473 h -1.76789 v -2.66473 h 1.76789 m -7.1423,2.22062 1.88281,1.90085 -1.25521,1.25242 -1.88281,-1.88306 1.25521,-1.27021 m 10.6339,1.89195 1.87398,-1.89195 1.26404,1.27021 -1.88281,1.88306 -1.25521,-1.26132 m -4.37554,0.32866 a 5.3036936,5.3294666 0 0 1 5.30369,5.32947 c 0,1.97189 -1.06958,3.6951 -2.65184,4.61886 v 1.59884 a 0.88394889,0.88824448 0 0 1 -0.88395,0.88826 h -3.5358 a 0.88394889,0.88824448 0 0 1 -0.88395,-0.88826 v -1.59884 c -1.58227,-0.92376 -2.65184,-2.64697 -2.65184,-4.61886 a 5.3036936,5.3294666 0 0 1 5.30369,-5.32947 m 1.7679,13.32366 v 0.88824 a 0.88394889,0.88824448 0 0 1 -0.88396,0.88827 h -1.76789 a 0.88394889,0.88824448 0 0 1 -0.88395,-0.88827 v -0.88824 h 3.5358 m -2.65185,-2.66472 h 1.76789 v -1.89196 c 1.52924,-0.39083 2.65185,-1.78539 2.65185,-3.43751 a 3.5357956,3.5529777 0 0 0 -3.53579,-3.55296 3.5357956,3.5529777 0 0 0 -3.5358,3.55296 c 0,1.65212 1.12261,3.04668 2.65185,3.43751 z"
       inkscape:connector-curvature="0"
       style="fill:#ff6600;stroke-width:0.88609403" />
    <path
       id="path6549-4"
       d="m 577.54762,-176.22621 c -0.51081,0 -0.81182,-0.0474 -0.89391,-0.13421 l -0.38311,5.86145 c 0.48344,0.39471 1.11283,0.59207 1.87905,0.78942 0.76622,0.19736 1.87906,0.19736 3.33852,0.16381 1.45034,-0.0868 2.96453,-0.39471 4.52434,-0.98678 l -0.72061,-9.0586 c -0.80272,0.78942 -1.9794,1.57884 -3.54832,2.34853 -1.39561,0.59206 -2.59967,0.98677 -3.59393,0.98677 h -0.60203 m -0.0821,-2.34853 c -0.62939,0.59207 -0.8848,0.98678 -0.76621,1.18413 0.0821,0.19736 0.51993,0.19736 1.32263,0.18354 0.99426,-0.0868 2.12534,-0.3947 3.375,-0.98677 0.85743,-0.39471 1.59629,-0.78942 2.22569,-1.18413 0.62938,-0.39471 1.0581,-0.78942 1.28614,-1.18413 0.22806,-0.39471 0.31014,-0.59207 0.25539,-0.59207 -0.0639,-0.15394 -0.34662,-0.19735 -0.85743,-0.19735 -1.03074,0 -2.30777,0.39471 -3.84933,0.98677 -1.31351,0.59207 -2.30777,1.18413 -2.99189,1.7762 m 8.54697,-3.01954 c 0.0639,0.12434 0.0912,0.19736 0.0912,0.39472 l 1.06723,13.8346 c 0,1.57883 -0.55642,2.98006 -1.62365,3.90763 -1.08548,0.98677 -2.55406,1.38149 -4.40575,1.38149 -1.82432,0 -3.28379,-0.39472 -4.37838,-1.57885 -1.0946,-0.98677 -1.65101,-2.26958 -1.65101,-3.92737 l 0.63851,-10.04538 c 0,-0.19735 0.10032,-0.59206 0.301,-0.78942 0.20068,-0.39471 0.38311,-0.59206 0.55643,-0.78942 l 0.30099,-0.19735 c 0.8848,-0.78942 1.95204,-1.38149 3.21082,-2.01302 0.84831,-0.39472 1.6875,-0.78943 2.49933,-0.98678 0.80271,-0.19341 1.53244,-0.19736 2.17095,-0.18354 0.64763,0.077 1.05811,0.39471 1.2223,0.78942 z"
       inkscape:connector-curvature="0"
       style="stroke-width:0.93680513;fill:#ff0000" />
    <path
       id="path6575-4"
       d="m 695.47183,-183.19547 h -12.09522 a 1.5119049,1.5685993 0 0 0 -1.51191,1.5686 v 9.4116 a 1.5119049,1.5685993 0 0 0 1.51191,1.56861 h 12.09522 a 1.5119049,1.5685993 0 0 0 1.5119,-1.56861 v -9.4116 a 1.5119049,1.5685993 0 0 0 -1.5119,-1.5686 m -9.25285,9.59981 -1.0659,1.1059 c -1.18684,-1.21569 -1.77647,-2.82348 -1.77647,-4.4313 0,-1.60784 0.58963,-3.21563 1.76892,-4.43915 l 1.06588,1.10587 c -0.8769,0.92547 -1.3229,2.12544 -1.3229,3.33328 0,1.20782 0.446,2.40779 1.33047,3.3254 m 3.20523,-0.18822 a 3.0238096,3.1371984 0 0 1 -3.0238,-3.13718 3.0238096,3.1371984 0 0 1 3.0238,-3.1372 3.0238096,3.1371984 0 0 1 3.02382,3.1372 3.0238096,3.1371984 0 0 1 -3.02382,3.13718 m 4.27869,1.30194 -1.06589,-1.10586 c 0.8769,-0.92547 1.32292,-2.12544 1.32292,-3.33326 0,-1.20784 -0.44602,-2.40781 -1.33049,-3.32544 l 1.0659,-1.10587 c 1.18685,1.21568 1.77649,2.82347 1.77649,4.43131 0,1.60782 -0.58964,3.21561 -1.76893,4.43912 m -4.27869,-6.00774 a 1.5119049,1.5685993 0 0 0 -1.5119,1.56862 1.5119049,1.5685993 0 0 0 1.5119,1.5686 1.5119049,1.5685993 0 0 0 1.5119,-1.5686 1.5119049,1.5685993 0 0 0 -1.5119,-1.56862 z"
       inkscape:connector-curvature="0"
       style="fill:#ff00ff;stroke-width:0.76999557" />
    <path
       id="path6631"
       d="m 558.1027,-165.66299 -1.23593,-1.20208 c 1.27099,-1.22767 2.05112,-2.94128 2.05112,-4.82541 0,-1.89267 -0.78013,-3.59774 -2.05112,-4.82541 l 1.23593,-1.20208 c 1.58655,1.54309 2.56828,3.67446 2.56828,6.02749 0,2.35303 -0.98173,4.4844 -2.56828,6.02749 m -2.48062,-2.4127 -1.23593,-1.20209 c 0.63111,-0.61383 1.02556,-1.46637 1.02556,-2.4127 0,-0.94633 -0.39445,-1.79887 -1.02556,-2.4127 l 1.23593,-1.20209 c 0.95543,0.92926 1.54272,2.2081 1.54272,3.61479 0,1.40669 -0.58729,2.68553 -1.54272,3.61479 m -11.60545,-11.28771 h 7.01235 a 1.7530896,1.7050926 0 0 1 1.75309,1.70511 v 11.93562 a 1.7530896,1.7050926 0 0 1 -1.75309,1.70511 h -7.01235 a 1.7530896,1.7050926 0 0 1 -1.75309,-1.70511 v -11.93562 a 1.7530896,1.7050926 0 0 1 1.75309,-1.70511 m 3.50618,1.70511 a 1.7530896,1.7050926 0 0 0 -1.7531,1.70507 1.7530896,1.7050926 0 0 0 1.7531,1.7051 1.7530896,1.7050926 0 0 0 1.75309,-1.7051 1.7530896,1.7050926 0 0 0 -1.75309,-1.70507 m 0,5.11527 a 3.506179,3.4101852 0 0 0 -3.50618,3.41018 3.506179,3.4101852 0 0 0 3.50618,3.41017 3.506179,3.4101852 0 0 0 3.50617,-3.41017 3.506179,3.4101852 0 0 0 -3.50617,-3.41018 m 0,1.70508 a 1.7530896,1.7050926 0 0 1 1.75309,1.7051 1.7530896,1.7050926 0 0 1 -1.75309,1.7051 1.7530896,1.7050926 0 0 1 -1.7531,-1.7051 1.7530896,1.7050926 0 0 1 1.7531,-1.7051 z"
       inkscape:connector-curvature="0"
       style="stroke-width:0.8644622" />
    <path
       id="path6734"
       d="m 575.94773,-155.66866 h 13.69954 a 1.9570768,2.0410733 0 0 1 1.95707,2.04105 v 16.32861 a 1.9570768,2.0410733 0 0 1 -1.95707,2.04105 h -13.69954 a 1.9570768,2.0410733 0 0 1 -1.95708,-2.04105 v -16.32861 a 1.9570768,2.0410733 0 0 1 1.95708,-2.04105 m 6.84977,2.04105 a 3.9141535,4.0821464 0 0 0 -3.91416,4.08217 h 3.19004 l -0.4012,-2.8269 2.00601,2.8269 h 3.03346 a 3.9141535,4.0821464 0 0 0 -3.91415,-4.08217 m -6.84977,6.12322 v 10.20539 h 13.69954 v -10.20539 z"
       inkscape:connector-curvature="0"
       style="stroke-width:0.99931687" />
    <rect
       style="fill:#e3e2db;stroke:#000000;stroke-width:0.52916664;stroke-miterlimit:4;stroke-dasharray:none;stroke-opacity:1;paint-order:markers stroke fill"
       id="rect7830"
       width="75.595238"
       height="177.64882"
       x="710.59521"
       y="-168.66666" />
    <rect
       style="fill:#333333;stroke:#000000;stroke-width:0.67723221;stroke-miterlimit:4;stroke-dasharray:none;stroke-opacity:1;paint-order:markers stroke fill"
       id="rect8136"
       width="91.458351"
       height="143.91394"
       x="607.03131"
       y="-135.69501" />
    <path
       id="path6324-5-0"
       d="m 459.37606,21.19077 a 1.6090983,2.0410697 0 0 0 -1.6091,2.04108 v 18.369632 a 1.6090983,2.0410697 0 0 0 1.6091,2.041088 h 8.04549 a 1.6090983,2.0410697 0 0 0 1.6091,-2.041088 V 23.23185 a 1.6090983,2.0410697 0 0 0 -1.6091,-2.04108 h -8.04549 m 0,2.04108 h 8.04549 v 18.369632 h -8.04549 V 23.23185 m 1.6091,3.06161 v 12.24642 h 4.82729 V 26.29346 h -4.82729 m 0.80454,1.020522 h 3.2182 v 4.082158 h -3.2182 v -4.082158 m 0,6.12321 h 3.2182 v 4.082158 h -3.2182 z"
       inkscape:connector-curvature="0"
       style="fill:#800080;stroke-width:0.90612948" />
    <rect
       style="fill:#d38d5f;stroke-width:0;stroke-miterlimit:4;stroke-dasharray:none"
       id="rect4690-8"
       width="63.5"
       height="6.0476193"
       x="616.1012"
       y="18.053564" />
    <ellipse
       style="fill:#000000;stroke:#000000;stroke-width:0.26458332;stroke-miterlimit:4;stroke-dasharray:none;stroke-opacity:1;paint-order:markers stroke fill"
       id="path9118"
       cx="745.36908"
       cy="-160.35118"
       rx="6.8035712"
       ry="7.5595236" />
    <path
       id="path6575-4-0"
       d="m 566.96428,-162.84582 h -12.09522 a 1.5119049,1.5685993 0 0 0 -1.51191,1.5686 v 9.4116 a 1.5119049,1.5685993 0 0 0 1.51191,1.56861 h 12.09522 a 1.5119049,1.5685993 0 0 0 1.5119,-1.56861 v -9.4116 a 1.5119049,1.5685993 0 0 0 -1.5119,-1.5686 m -9.25285,9.59981 -1.0659,1.1059 c -1.18684,-1.21569 -1.77647,-2.82348 -1.77647,-4.4313 0,-1.60784 0.58963,-3.21563 1.76892,-4.43915 l 1.06588,1.10587 c -0.8769,0.92547 -1.3229,2.12544 -1.3229,3.33328 0,1.20782 0.446,2.40779 1.33047,3.3254 m 3.20523,-0.18822 a 3.0238097,3.1371984 0 0 1 -3.0238,-3.13718 3.0238097,3.1371984 0 0 1 3.0238,-3.1372 3.0238097,3.1371984 0 0 1 3.02382,3.1372 3.0238097,3.1371984 0 0 1 -3.02382,3.13718 m 4.27869,1.30194 -1.06589,-1.10586 c 0.8769,-0.92547 1.32292,-2.12544 1.32292,-3.33326 0,-1.20784 -0.44602,-2.40781 -1.33049,-3.32544 l 1.0659,-1.10587 c 1.18685,1.21568 1.77649,2.82347 1.77649,4.43131 0,1.60782 -0.58964,3.21561 -1.76893,4.43912 m -4.27869,-6.00774 a 1.5119049,1.5685993 0 0 0 -1.5119,1.56862 1.5119049,1.5685993 0 0 0 1.5119,1.5686 1.5119049,1.5685993 0 0 0 1.5119,-1.5686 1.5119049,1.5685993 0 0 0 -1.5119,-1.56862 z"
       inkscape:connector-curvature="0"
       style="fill:#00ffff;stroke-width:0.76999557" />
    <path
       id="path6575-4-9-6-9"
       d="m 779.99167,216.64227 h -10.28095 a 1.2851189,1.3796114 0 0 0 -1.28512,1.37962 v 8.27766 a 1.2851189,1.3796114 0 0 0 1.28512,1.37962 h 10.28095 a 1.2851189,1.3796114 0 0 0 1.28512,-1.37962 v -8.27766 a 1.2851189,1.3796114 0 0 0 -1.28512,-1.37962 m -7.86493,8.44321 -0.90601,0.97265 c -1.00882,-1.06922 -1.51001,-2.4833 -1.51001,-3.89741 0,-1.41411 0.50119,-2.8282 1.50359,-3.9043 l 0.906,0.97262 c -0.74536,0.81398 -1.12447,1.86938 -1.12447,2.93168 0,1.06231 0.37911,2.11769 1.1309,2.92476 m 2.72445,-0.16555 a 2.5702378,2.7592226 0 0 1 -2.57023,-2.75921 2.5702378,2.7592226 0 0 1 2.57023,-2.75921 2.5702378,2.7592226 0 0 1 2.57024,2.75921 2.5702378,2.7592226 0 0 1 -2.57024,2.75921 m 3.63689,1.14508 -0.90601,-0.97262 c 0.74537,-0.81398 1.12448,-1.86936 1.12448,-2.93167 0,-1.0623 -0.37911,-2.1177 -1.1309,-2.92477 l 0.90601,-0.97264 c 1.00881,1.06921 1.51001,2.4833 1.51001,3.89741 0,1.41411 -0.5012,2.82819 -1.50359,3.90429 m -3.63689,-5.28391 a 1.2851189,1.3796114 0 0 0 -1.28512,1.37962 1.2851189,1.3796114 0 0 0 1.28512,1.37962 1.2851189,1.3796114 0 0 0 1.28512,-1.37962 1.2851189,1.3796114 0 0 0 -1.28512,-1.37962 z"
       inkscape:connector-curvature="0"
       style="fill:#ff6600;stroke-width:0.66576374" />
  </g>
</svg>
